<?xml version="1.0" encoding="utf-8"?>
<!-- Generator: Adobe Illustrator 16.0.0, SVG Export Plug-In . SVG Version: 6.00 Build 0)  -->
<!DOCTYPE svg PUBLIC "-//W3C//DTD SVG 1.1//EN" "http://www.w3.org/Graphics/SVG/1.1/DTD/svg11.dtd">
<svg version="1.1" id="Layer_1" xmlns="http://www.w3.org/2000/svg" xmlns:xlink="http://www.w3.org/1999/xlink" x="0px" y="0px"
	 width="60px" height="60px" viewBox="0 0 60 60" enable-background="new 0 0 60 60" xml:space="preserve">
<g>
	<path fill="#FFFFFF" d="M30.027,60C46.501,60,60,46.501,60,30.026C60,13.498,46.501,0,30.027,0C13.498,0,0,13.498,0,30.026
		C0,46.501,13.498,60,30.027,60L30.027,60z"/>
	<path fill="#222222" d="M26.252,18.76c0-4.144,3.349-7.494,7.493-7.494h5.633v7.494h-3.772c-1.01,0-1.86,0.85-1.86,1.86v3.773
		h5.633v7.492h-5.633v16.901h-7.493V31.885H20.62v-7.492h5.632V18.76z"/>
</g>
</svg>
