<?xml version="1.0" encoding="utf-8"?>
<!-- Generator: Adobe Illustrator 16.0.0, SVG Export Plug-In . SVG Version: 6.00 Build 0)  -->
<!DOCTYPE svg PUBLIC "-//W3C//DTD SVG 1.1//EN" "http://www.w3.org/Graphics/SVG/1.1/DTD/svg11.dtd">
<svg version="1.1" id="Layer_1" xmlns="http://www.w3.org/2000/svg" xmlns:xlink="http://www.w3.org/1999/xlink" x="0px" y="0px"
	 width="60px" height="60px" viewBox="0 0 60 60" enable-background="new 0 0 60 60" xml:space="preserve">
<g>
	<path fill="#FFFFFF" d="M30.027,60C46.501,60,60,46.501,60,30.026C60,13.498,46.501,0,30.027,0C13.498,0,0,13.498,0,30.026
		C0,46.501,13.498,60,30.027,60L30.027,60z"/>
	<path d="M30,34.177c-0.557,0-1.045-0.195-2.089-0.7L13.285,25.82v13.626c0,1.147,1.941,3.09,3.09,3.09h27.25
		c1.147,0,3.09-1.942,3.09-3.09V25.82L32.09,33.477C31.045,33.982,30.558,34.177,30,34.177z M43.625,17.464h-27.25
		c-1.149,0-3.09,1.94-3.09,3.089v0.583l16.714,8.787l16.715-8.787v-0.583C46.715,19.404,44.773,17.464,43.625,17.464z"/>
</g>
</svg>
