<?xml version="1.0" encoding="utf-8"?>
<!-- Generator: Adobe Illustrator 16.0.0, SVG Export Plug-In . SVG Version: 6.00 Build 0)  -->
<!DOCTYPE svg PUBLIC "-//W3C//DTD SVG 1.1//EN" "http://www.w3.org/Graphics/SVG/1.1/DTD/svg11.dtd">
<svg version="1.1" xmlns="http://www.w3.org/2000/svg" xmlns:xlink="http://www.w3.org/1999/xlink" x="0px" y="0px" width="256px"
	 height="256px" viewBox="0 0 256 256" enable-background="new 0 0 256 256" xml:space="preserve">
<g id="Layer_1">
	<rect fill="#C5C5C5" width="256" height="256"/>
</g>
<g id="Layer_2">
	<g>
		<path fill="#F4F4F4" d="M143.622,100.966c7.482,0,13.553-6.071,13.553-13.554c0-7.48-6.07-13.552-13.553-13.552
			s-13.553,6.071-13.553,13.552C130.069,94.895,136.14,100.966,143.622,100.966z"/>
		<path fill="#F4F4F4" d="M167.339,55.79H56.66c-4.405,0-7.906,3.586-7.906,7.991v92.439c0,4.404,3.501,7.99,7.906,7.99h110.679
			c4.405,0,7.906-3.586,7.906-7.99V63.781C175.245,59.376,171.744,55.79,167.339,55.79z M138.229,111.61
			c-0.847-0.988-2.146-1.751-3.614-1.751c-1.44,0-2.457,0.678-3.614,1.609l-5.28,4.461c-1.1,0.791-1.977,1.327-3.246,1.327
			c-1.215,0-2.314-0.452-3.105-1.157c-0.283-0.254-0.791-0.734-1.215-1.158l-15.19-16.432c-1.128-1.299-2.823-2.118-4.715-2.118
			s-3.642,0.932-4.743,2.202l-35.717,43.087V68.129c0.282-1.92,1.779-3.304,3.698-3.304h100.995c1.948,0,3.53,1.44,3.643,3.388
			l0.085,73.523L138.229,111.61z"/>
	</g>
	<circle fill="#C5C5C5" stroke="#F4F4F4" stroke-width="10.3636" stroke-miterlimit="10" cx="170" cy="162" r="38"/>
	<g>
		<g>
			<path fill="#F4F4F4" d="M151,166.803c12.917,0,25.833,0,38.75,0c6.194,0,6.194-9.605,0-9.605c-12.917,0-25.833,0-38.75,0
				C144.806,157.197,144.806,166.803,151,166.803L151,166.803z"/>
		</g>
	</g>
	<g>
		<g>
			<path fill="#F4F4F4" d="M165.572,142.625c0,12.917,0,25.833,0,38.75c0,6.194,9.605,6.194,9.605,0c0-12.917,0-25.833,0-38.75
				C175.178,136.431,165.572,136.431,165.572,142.625L165.572,142.625z"/>
		</g>
	</g>
</g>
</svg>
