<?xml version="1.0" encoding="utf-8"?>
<!-- Generator: Adobe Illustrator 16.0.0, SVG Export Plug-In . SVG Version: 6.00 Build 0)  -->
<!DOCTYPE svg PUBLIC "-//W3C//DTD SVG 1.1//EN" "http://www.w3.org/Graphics/SVG/1.1/DTD/svg11.dtd">
<svg version="1.1" xmlns="http://www.w3.org/2000/svg" xmlns:xlink="http://www.w3.org/1999/xlink" x="0px" y="0px" width="160px"
	 height="120px" viewBox="0 0 160 120" enable-background="new 0 0 160 120" xml:space="preserve">
<g id="Layer_1">
	<path fill="#222222" d="M149.432,4.031l-7.462-0.188c-17.287-0.434-34.184,2.519-50.223,8.783
		c-16.608,6.485-31.472,16.217-44.18,28.925L9.535,79.583c-2.093,2.093-2.167,4.284,0.534,6.985
		c2.762,2.761,5.595,2.569,7.307,0.856l17.779-17.779c-0.727,12.115,3.519,24.474,12.754,33.711
		c8.563,8.562,19.811,12.843,31.058,12.843c3.01,0,8.976,0,8.976,0l37.29-0.001c2.354,0.001,4.278-1.511,4.278-6.218
		c0-4.346-2.105-6.095-4.278-6.095l-15.767,0c0.185-0.178,0.376-0.348,0.559-0.53c15.645-15.647,16.986-40.253,4.043-57.448
		c0.035-0.304,0.059-0.611,0.059-0.924c0-4.323-3.504-7.827-7.827-7.827c-4.324,0-7.828,3.504-7.828,7.827
		c0,3.999,3,7.291,6.871,7.764c9.532,12.845,8.481,31.125-3.159,42.767c-12.802,12.801-33.631,12.801-46.432,0
		s-12.801-33.629,0-46.431l-0.014-0.013c19.344-19.199,43.983-30.826,70.618-33.557c0.564-0.058,0.94,0.596,0.559,0.978
		c-3.845,3.856-7.467,7.485-7.467,7.485c-1.924,1.923-2.196,4.255,0.695,7.147c2.762,2.762,5.283,2.557,7.146,0.694l18.469-18.519
		l5.607-5.625C152.796,6.243,151.663,4.031,149.432,4.031z"/>
</g>
<g id="Guideline" display="none">
</g>
</svg>
