<?xml version="1.0" encoding="utf-8"?>
<!-- Generator: Adobe Illustrator 16.0.0, SVG Export Plug-In . SVG Version: 6.00 Build 0)  -->
<!DOCTYPE svg PUBLIC "-//W3C//DTD SVG 1.1//EN" "http://www.w3.org/Graphics/SVG/1.1/DTD/svg11.dtd">
<svg version="1.1" id="Layer_1" xmlns="http://www.w3.org/2000/svg" xmlns:xlink="http://www.w3.org/1999/xlink" x="0px" y="0px"
	 width="44px" height="44px" viewBox="0 0 44 44" enable-background="new 0 0 44 44" xml:space="preserve">
<g>
	<rect x="-0.5" y="0.5" fill="none" stroke="#000000" stroke-width="3" stroke-miterlimit="10" width="44" height="44"/>
	<path d="M25.043,27.98c0,0,2.362-1.353,2.98-1.678c0.617-0.326,1.256-0.408,1.644-0.171c0.588,0.359,5.521,3.641,5.937,3.931
		c0.414,0.291,0.615,1.123,0.044,1.938c-0.569,0.814-3.193,4.034-4.305,4c-1.114-0.036-5.743-0.139-14.474-8.871
		C8.139,18.398,8.036,13.767,8,12.654c-0.036-1.113,3.184-3.737,3.999-4.307c0.816-0.568,1.648-0.354,1.938,0.045
		c0.329,0.456,3.572,5.373,3.929,5.937c0.245,0.385,0.155,1.027-0.171,1.645c-0.324,0.618-1.676,2.98-1.676,2.98
		s0.953,1.625,4.176,4.848C23.419,27.025,25.043,27.98,25.043,27.98z"/>
</g>
</svg>
