<?xml version="1.0" encoding="utf-8"?>
<!-- Generator: Adobe Illustrator 16.0.0, SVG Export Plug-In . SVG Version: 6.00 Build 0)  -->
<!DOCTYPE svg PUBLIC "-//W3C//DTD SVG 1.1//EN" "http://www.w3.org/Graphics/SVG/1.1/DTD/svg11.dtd">
<svg version="1.1" id="Layer_1" xmlns="http://www.w3.org/2000/svg" xmlns:xlink="http://www.w3.org/1999/xlink" x="0px" y="0px"
	 width="60px" height="54px" viewBox="0 0 60 54" enable-background="new 0 0 60 54" xml:space="preserve">
<path fill="#FFFFFF" d="M30.891,8c-10.371,0-15.6,7.435-15.6,13.635c0,3.754,1.421,7.094,4.468,8.338
	c0.5,0.204,0.949,0.008,1.094-0.546c0.101-0.383,0.34-1.35,0.445-1.752c0.146-0.548,0.088-0.738-0.314-1.217
	c-0.879-1.035-1.441-2.377-1.441-4.279c0-5.515,4.127-10.454,10.746-10.454c5.859,0,9.082,3.582,9.082,8.363
	c0,6.294-2.785,11.605-6.919,11.605c-2.284,0-3.992-1.887-3.446-4.203c0.656-2.765,1.926-5.749,1.926-7.746
	c0-1.787-0.958-3.276-2.942-3.276c-2.334,0-4.209,2.415-4.209,5.649c0,2.06,0.697,3.455,0.697,3.455s-2.388,10.122-2.807,11.894
	c-0.834,3.529-0.127,7.857-0.064,8.293c0.034,0.261,0.367,0.322,0.52,0.125c0.215-0.278,2.996-3.713,3.939-7.143
	c0.27-0.972,1.535-6,1.535-6c0.76,1.448,2.977,2.721,5.333,2.721c7.016,0,11.776-6.396,11.776-14.958
	C44.707,14.03,39.225,8,30.891,8z"/>
</svg>
