<?xml version="1.0" encoding="utf-8"?>
<!-- Generator: Adobe Illustrator 16.0.0, SVG Export Plug-In . SVG Version: 6.00 Build 0)  -->
<!DOCTYPE svg PUBLIC "-//W3C//DTD SVG 1.1//EN" "http://www.w3.org/Graphics/SVG/1.1/DTD/svg11.dtd">
<svg version="1.1" id="Layer_1" xmlns="http://www.w3.org/2000/svg" xmlns:xlink="http://www.w3.org/1999/xlink" x="0px" y="0px"
	 width="44px" height="44px" viewBox="0 0 44 44" enable-background="new 0 0 44 44" xml:space="preserve">
<g>
	
		<image overflow="visible" opacity="0.3" width="56" height="56" xlink:href="C557EA5D69B163B6.png"  transform="matrix(1 0 0 1 -6 -5)">
	</image>
	<g>
		<g>
			<rect width="44" height="44"/>
			<path fill="#FFFFFF" d="M22.643,8.286c-7.486,0-11.26,5.367-11.26,9.842c0,2.71,1.025,5.12,3.225,6.018
				c0.361,0.147,0.685,0.005,0.79-0.394c0.072-0.275,0.245-0.974,0.322-1.265c0.104-0.396,0.063-0.532-0.228-0.878
				c-0.634-0.748-1.041-1.716-1.041-3.089c0-3.981,2.979-7.545,7.756-7.545c4.23,0,6.557,2.585,6.557,6.036
				c0,4.544-2.011,8.377-4.995,8.377c-1.647,0-2.881-1.361-2.487-3.034c0.474-1.996,1.39-4.149,1.39-5.591
				c0-1.29-0.692-2.365-2.125-2.365c-1.685,0-3.038,1.744-3.038,4.077c0,1.487,0.503,2.494,0.503,2.494s-1.724,7.306-2.025,8.585
				c-0.603,2.548-0.091,5.672-0.047,5.985c0.024,0.188,0.265,0.233,0.375,0.091c0.155-0.202,2.162-2.68,2.844-5.154
				c0.194-0.701,1.108-4.332,1.108-4.332c0.548,1.046,2.147,1.965,3.85,1.965c5.062,0,8.5-4.619,8.5-10.797
				C32.615,12.638,28.658,8.286,22.643,8.286z"/>
		</g>
	</g>
</g>
</svg>
