<?xml version="1.0" encoding="utf-8"?>
<!-- Generator: Adobe Illustrator 16.0.0, SVG Export Plug-In . SVG Version: 6.00 Build 0)  -->
<!DOCTYPE svg PUBLIC "-//W3C//DTD SVG 1.1//EN" "http://www.w3.org/Graphics/SVG/1.1/DTD/svg11.dtd">
<svg version="1.1" id="Layer_1" xmlns="http://www.w3.org/2000/svg" xmlns:xlink="http://www.w3.org/1999/xlink" x="0px" y="0px"
	 width="60px" height="54px" viewBox="-1.654 1.346 60 54" enable-background="new -1.654 1.346 60 54" xml:space="preserve">
<path fill="#FFFFFF" d="M29.226,9.587c-10.239,0-15.402,7.341-15.402,13.463c0,3.707,1.403,7.003,4.412,8.232
	c0.494,0.203,0.937,0.007,1.08-0.539c0.099-0.377,0.335-1.332,0.44-1.729c0.143-0.541,0.087-0.729-0.311-1.201
	c-0.868-1.023-1.424-2.348-1.424-4.226c0-5.446,4.075-10.322,10.611-10.322c5.787,0,8.967,3.537,8.967,8.258
	c0,6.215-2.75,11.459-6.832,11.459c-2.254,0-3.941-1.863-3.402-4.15c0.648-2.73,1.902-5.676,1.902-7.648
	c0-1.764-0.947-3.235-2.906-3.235c-2.305,0-4.156,2.385-4.156,5.578c0,2.034,0.688,3.411,0.688,3.411s-2.358,9.993-2.771,11.743
	c-0.824,3.486-0.125,7.758-0.064,8.188c0.034,0.257,0.363,0.318,0.513,0.125c0.212-0.277,2.958-3.666,3.89-7.053
	c0.266-0.959,1.516-5.924,1.516-5.924c0.75,1.43,2.938,2.686,5.266,2.686c6.927,0,11.628-6.316,11.628-14.769
	C42.869,15.54,37.455,9.587,29.226,9.587z"/>
</svg>
