<?xml version="1.0" encoding="utf-8"?>
<!-- Generator: Adobe Illustrator 17.0.0, SVG Export Plug-In . SVG Version: 6.00 Build 0)  -->
<!DOCTYPE svg PUBLIC "-//W3C//DTD SVG 1.1//EN" "http://www.w3.org/Graphics/SVG/1.1/DTD/svg11.dtd">
<svg version="1.1" id="Layer_1" xmlns="http://www.w3.org/2000/svg" xmlns:xlink="http://www.w3.org/1999/xlink" x="0px" y="0px"
	 width="38px" height="34px" viewBox="0 0 38 34" enable-background="new 0 0 38 34" xml:space="preserve">
<g>
	<path fill="#3C4B54" d="M6.108,9.599c3.782-4.792,12.119-4.515,18.622,0.617c6.498,5.129,8.709,13.178,4.927,17.969l-7.868-6.21
		l2.719-3.445l-7.668-6.052l-2.662,3.49L6.108,9.599z"/>
	
		<rect x="3.54" y="13.301" transform="matrix(0.785 0.6195 -0.6195 0.785 10.9464 -2.245)" fill="#3C4B54" width="10.335" height="2.691"/>
	
		<rect x="19.276" y="25.588" transform="matrix(0.785 0.6195 -0.6195 0.785 21.9064 -9.2479)" fill="#3C4B54" width="10" height="2.691"/>
	<path fill="#3C4B54" d="M11.93,18.904c-0.228,0.289-2.227-0.909-4.466-2.677c-2.249-1.775-3.874-3.437-3.646-3.726
		c0.232-0.294,2.226,0.901,4.475,2.676C10.532,16.945,12.162,18.61,11.93,18.904"/>
	<path fill="#3C4B54" d="M27.366,31.088c-0.228,0.289-2.169-0.864-4.332-2.571c-2.173-1.715-3.745-3.335-3.517-3.624
		c0.232-0.294,2.173,0.859,4.346,2.574C26.026,29.173,27.598,30.794,27.366,31.088"/>
</g>
</svg>
