<?xml version="1.0" encoding="utf-8"?>
<!-- Generator: Adobe Illustrator 16.0.0, SVG Export Plug-In . SVG Version: 6.00 Build 0)  -->
<!DOCTYPE svg PUBLIC "-//W3C//DTD SVG 1.1//EN" "http://www.w3.org/Graphics/SVG/1.1/DTD/svg11.dtd">
<svg version="1.1" id="Layer_1" xmlns="http://www.w3.org/2000/svg" xmlns:xlink="http://www.w3.org/1999/xlink" x="0px" y="0px"
	 width="44px" height="44px" viewBox="0 0 44 44" enable-background="new 0 0 44 44" xml:space="preserve">
<g>
	<rect x="-0.5" y="0.5" fill="none" stroke="#000000" stroke-width="3" stroke-miterlimit="10" width="44" height="44"/>
	<g>
		<path fill="#222222" d="M22,25.998c-0.533,0-1-0.186-2-0.67l-14-7.33v13.042C6,32.138,7.858,34,8.958,34h26.085
			C36.14,34,38,32.141,38,31.041V17.999l-14,7.33C23,25.812,22.535,25.998,22,25.998z M35.043,10H8.958C7.858,10,6,11.857,6,12.957
			v0.558l15.999,8.412l16-8.412v-0.558C38,11.857,36.142,10,35.043,10z"/>
	</g>
</g>
</svg>
