<?xml version="1.0" encoding="utf-8"?>
<!-- Generator: Adobe Illustrator 16.0.0, SVG Export Plug-In . SVG Version: 6.00 Build 0)  -->
<!DOCTYPE svg PUBLIC "-//W3C//DTD SVG 1.1//EN" "http://www.w3.org/Graphics/SVG/1.1/DTD/svg11.dtd">
<svg version="1.1" id="Layer_1" xmlns="http://www.w3.org/2000/svg" xmlns:xlink="http://www.w3.org/1999/xlink" x="0px" y="0px"
	 width="120px" height="120px" viewBox="0 0 120 120" enable-background="new 0 0 120 120" xml:space="preserve">
<g>
	<path fill="none" stroke="#000000" stroke-width="4.7394" stroke-miterlimit="10" d="M68.753,32.6
		C80.72,36.16,88.955,46.917,88.955,60.369c0,12.61-11.154,20.782-16.657,29.022c-2.086,3.121-1.749,9.76-1.785,14.992
		c-0.063,9.523-2.181,12.129-10.586,12.129c-6.997,0-9.636-1.805-10.361-7.9"/>
	<path fill="none" stroke="#000000" stroke-width="4.7394" stroke-miterlimit="10" d="M49.337,99.926
		c-0.029-4.111-0.262-8.258-1.782-10.535c-5.503-8.24-16.657-16.412-16.657-29.022c0-16.556,12.473-29.029,29.029-29.029"/>
	<g>
		<g>
			<path d="M63.195,18.231c0-4.744,0-9.488,0-14.231c0-3.667-5.687-3.667-5.687,0c0,4.744,0,9.488,0,14.231
				C57.508,21.899,63.195,21.899,63.195,18.231L63.195,18.231z"/>
		</g>
	</g>
	<g>
		<g>
			<path d="M101.169,47.811c4.107-2.372,8.216-4.744,12.324-7.116c3.174-1.833,0.312-6.748-2.871-4.911
				c-4.107,2.372-8.216,4.744-12.324,7.116C95.124,44.733,97.986,49.648,101.169,47.811L101.169,47.811z"/>
		</g>
	</g>
	<g>
		<g>
			<path d="M21.76,42.9c-4.108-2.372-8.216-4.744-12.325-7.116c-3.182-1.837-6.044,3.078-2.87,4.911
				c4.108,2.372,8.216,4.744,12.325,7.116C22.072,49.648,24.934,44.733,21.76,42.9L21.76,42.9z"/>
		</g>
	</g>
	<path d="M74.07,32.448c0,2.673-2.172,4.844-4.845,4.844c-2.674,0-4.844-2.171-4.844-4.844s2.17-4.844,4.844-4.844
		C71.898,27.604,74.07,29.774,74.07,32.448z"/>
	<path d="M54.323,99.75c0,2.674-2.172,4.844-4.845,4.844s-4.843-2.17-4.843-4.844s2.169-4.844,4.843-4.844
		S54.323,97.076,54.323,99.75z"/>
</g>
</svg>
