<?xml version="1.0" encoding="utf-8"?>
<!-- Generator: Adobe Illustrator 16.0.0, SVG Export Plug-In . SVG Version: 6.00 Build 0)  -->
<!DOCTYPE svg PUBLIC "-//W3C//DTD SVG 1.1//EN" "http://www.w3.org/Graphics/SVG/1.1/DTD/svg11.dtd">
<svg version="1.1" id="Layer_1" xmlns="http://www.w3.org/2000/svg" xmlns:xlink="http://www.w3.org/1999/xlink" x="0px" y="0px"
	 width="514px" height="84.5px" viewBox="0 0 514 84.5" enable-background="new 0 0 514 84.5" xml:space="preserve">
<g id="Layer_1_1_">
	<g>
		<circle fill="#222222" cx="106.491" cy="68.14" r="9.188"/>
		<path fill="#222222" d="M112.029,66.341L71.976,9.653c-0.18-0.286-0.316-0.527-0.404-0.727c-0.088-0.196-0.168-0.35-0.241-0.457
			c-0.933-1.579-2.801-2.369-5.599-2.369c-3.77,0-6.426,1.184-7.968,3.552L19.971,67.419c-0.213,0.321-0.323,0.679-0.323,1.075
			c0,1.258,0.682,2.351,2.045,3.285c1.217,0.859,2.493,1.293,3.822,1.293c1.328,0,2.566-0.843,3.713-2.527l10.608-15.398h27.25
			V45.19H46.836l18.249-26.705l18.143,26.78l7,9.867l10.604,15.399c1.436,2.157,3.303,3.234,5.6,3.234
			c1.648,0,3.033-0.556,4.146-1.668c1.11-1.112,1.667-2.495,1.667-4.144C112.243,67.129,112.169,66.591,112.029,66.341z"/>
		<circle fill="#222222" cx="67.131" cy="49.765" r="9.187"/>
	</g>
	<g>
		<path fill="#222222" d="M210.233,49.228c-0.074-0.396-0.306-0.95-0.698-1.67c-0.396-0.717-0.935-1.598-1.617-2.637
			c-1.328-2.081-1.991-3.214-1.991-3.395c0-0.25,0.665-1.524,1.991-3.822c0.682-1.147,1.22-2.101,1.617-2.854
			c0.392-0.754,0.624-1.291,0.698-1.615c0.288-1.648,0.431-4.341,0.431-8.077c0-3.838-1.526-7.212-4.577-10.119
			c-2.763-2.584-6.136-4.576-10.119-5.542c-3.697-0.717-7.79-1.289-12.275-1.289h-50.011c-2.8,0-4.009,1.827-4.009,4.625v57.117
			c0,2.836,1.209,3.687,4.008,3.687h7.371v-9.284V45.19h42.843c9.877,0,14.817,2.989,14.817,7.51c0,1.363-0.008,2.805-0.027,3.592
			c-0.021,0.792-0.045,1.851-0.082,2.062c-0.683,4.127-5.855,6.748-15.518,6.748h-23.543v8.533h24.85
			c6.963,0,12.741-0.88,17.337-3.217c5.957-3.014,8.935-7.52,8.935-13.801c0-1.976-0.036-3.509-0.106-4.746
			C210.482,50.636,210.375,49.803,210.233,49.228z M183.678,36.655h-42.626V18.165h42.144c9.987,0,15.157,2.387,15.517,6.944
			c0.215,2.475,0.325,4.294,0.325,5.478C199.037,34.644,193.916,36.655,183.678,36.655z"/>
		<circle fill="#222222" cx="159.123" cy="69.162" r="9.188"/>
	</g>
	<g>
		<circle fill="#222222" cx="277.215" cy="69.471" r="9.188"/>
		<path fill="#222222" d="M295.231,10.9c-3.874-1.653-10.903-2.691-20.339-2.691h-18.628c-20.208,0-31.292,6.348-31.292,18.192
			v30.256c0,6.675,4.118,11.2,11.366,14.143c4.736,2.082,11.708,2.839,19.926,2.839h2.844v-8.534h-2.88
			c-12.216,0-17.033-3.421-17.033-8.772V26.669c0-5.528,4.817-8.505,17.033-8.505h18.967c12.107,0,18.05,2.979,18.05,8.505v29.662
			c0,5.352-5.926,8.772-17.995,8.772h-3.341v8.534h2.982c20.275,0,31.155-5.302,31.155-17.037V26.4
			C306.048,18.902,302.196,13.589,295.231,10.9z"/>
	</g>
	<g>
		<g>
			<path fill="#222222" d="M401.131,55.74c0,12.454-11.933,18.681-35.797,18.681c-0.72,0-1.625-0.009-2.719-0.026
				c-1.099-0.021-2.362-0.046-3.796-0.081c-1.437-0.037-2.692-0.064-3.769-0.083c-1.076-0.021-1.974-0.031-2.691-0.031
				c-16.797,0-26.898-3.158-30.31-9.474c-1.183-2.186-1.776-5.186-1.776-8.988V12.834c0-2.799,1.393-4.197,4.18-4.197
				c2.681,0,4.393,0.106,5.145,0.322c1.751,0.54,2.626,1.831,2.626,3.876v42.098c0,4.165,2.531,6.945,7.59,8.343
				c1.509,0.361,3.292,0.631,5.358,0.81c2.062,0.181,4.495,0.269,7.293,0.269h16.476c6.277,0,10.497-0.342,12.652-1.024
				c5.06-1.33,7.59-4.111,7.59-8.347V12.834c0-2.081,0.849-3.373,2.542-3.876c0.684-0.215,2.414-0.323,5.188-0.323
				c2.815,0,4.221,1.399,4.221,4.198V55.74H401.131z"/>
		</g>
		<circle fill="#222222" cx="395.18" cy="14.344" r="9.188"/>
	</g>
	<g>
		<g>
			<path fill="#222222" d="M491.685,14.126c0,2.835-1.399,4.252-4.199,4.252h-26.539v51.573c0,2.836-1.391,4.253-4.168,4.253
				c-2.812,0-4.559-0.106-5.244-0.325c-1.695-0.501-2.541-1.807-2.541-3.931v-51.57h-26.326c-2.834,0-4.251-1.417-4.251-4.252
				c0-1.937,0.211-3.264,0.645-3.984c0.572-1.004,1.776-1.507,3.606-1.507h64.815C490.282,8.637,491.685,10.466,491.685,14.126z"/>
		</g>
		<circle fill="#222222" cx="485.954" cy="13.327" r="9.188"/>
	</g>
</g>
<g id="Description">
</g>
</svg>
