<?xml version="1.0" encoding="utf-8"?>
<!-- Generator: Adobe Illustrator 16.0.0, SVG Export Plug-In . SVG Version: 6.00 Build 0)  -->
<!DOCTYPE svg PUBLIC "-//W3C//DTD SVG 1.1//EN" "http://www.w3.org/Graphics/SVG/1.1/DTD/svg11.dtd">
<svg version="1.1" xmlns="http://www.w3.org/2000/svg" xmlns:xlink="http://www.w3.org/1999/xlink" x="0px" y="0px" width="544px"
	 height="60px" viewBox="0 0 544 60" enable-background="new 0 0 544 60" xml:space="preserve">
<g id="Layer_1">
	<g>
		<circle cx="80.703" cy="49.135" r="6.459"/>
		<path d="M84.596,47.869L56.437,8.016c-0.127-0.201-0.222-0.371-0.284-0.511c-0.062-0.138-0.119-0.246-0.17-0.321
			c-0.656-1.11-1.969-1.666-3.936-1.666c-2.65,0-4.518,0.833-5.602,2.498l-26.57,40.611c-0.15,0.227-0.227,0.479-0.227,0.757
			c0,0.883,0.479,1.652,1.438,2.309c0.856,0.605,1.753,0.908,2.687,0.908s1.804-0.592,2.611-1.777L33.842,40H53v-7H38.762
			l12.83-18.775l12.755,18.828l4.921,6.936l7.455,10.828c1.009,1.515,2.322,2.273,3.937,2.273c1.159,0,2.132-0.39,2.914-1.172
			c0.781-0.782,1.173-1.754,1.173-2.914C84.746,48.424,84.695,48.046,84.596,47.869z"/>
		<circle cx="53.031" cy="36.217" r="6.459"/>
	</g>
	<g>
		<path d="M153.638,35.838c-0.052-0.277-0.215-0.668-0.491-1.174c-0.279-0.504-0.657-1.122-1.137-1.854
			c-0.934-1.463-1.4-2.257-1.4-2.384c0-0.177,0.467-1.072,1.4-2.688c0.479-0.807,0.857-1.477,1.137-2.006
			c0.276-0.53,0.439-0.908,0.491-1.136c0.202-1.159,0.303-3.052,0.303-5.678c0-2.698-1.073-5.071-3.218-7.114
			c-1.942-1.817-4.314-3.217-7.114-3.897C141.01,7.402,138.133,7,134.979,7h-35.16C97.85,7,97,8.284,97,10.252v40.156
			C97,52.402,97.85,53,99.818,53H105v-6.527V33h30.12c6.945,0,10.418,2.101,10.418,5.279c0,0.959-0.006,1.972-0.019,2.525
			c-0.014,0.557-0.032,1.301-0.057,1.451c-0.48,2.902-4.117,4.744-10.91,4.744H118v6h17.471c4.895,0,8.957-0.62,12.188-2.261
			c4.188-2.119,6.282-5.287,6.282-9.703c0-1.388-0.025-2.467-0.075-3.337C153.813,36.828,153.738,36.242,153.638,35.838z
			 M134.969,27H105V14h29.629c7.021,0,10.656,1.678,10.909,4.882c0.151,1.74,0.228,3.019,0.228,3.851
			C145.766,25.585,142.166,27,134.969,27z"/>
		<circle cx="117.705" cy="49.854" r="6.459"/>
	</g>
	<g>
		<circle cx="200.729" cy="50.07" r="6.459"/>
		<path d="M213.396,8.892C210.672,7.73,205.73,7,199.096,7H186c-14.207,0-22,4.463-22,12.79v21.271c0,4.693,2.895,7.875,7.991,9.943
			C175.321,52.468,180.222,53,186,53h2v-6h-2.025C177.387,47,174,44.594,174,40.833V19.979c0-3.886,3.387-5.979,11.975-5.979h13.335
			c8.512,0,12.69,2.094,12.69,5.979v20.854c0,3.761-4.166,6.167-12.652,6.167H197v6h2.096C213.351,53,221,49.273,221,41.022V19.79
			C221,14.518,218.292,10.783,213.396,8.892z"/>
	</g>
	<g>
		<g>
			<path d="M287.848,40.417c0,8.756-8.39,13.134-25.169,13.134c-0.505,0-1.142-0.007-1.911-0.02
				c-0.771-0.013-1.66-0.032-2.668-0.057c-1.01-0.025-1.893-0.045-2.65-0.057c-0.756-0.013-1.387-0.02-1.892-0.02
				c-11.809,0-18.911-2.22-21.309-6.661c-0.832-1.538-1.249-3.646-1.249-6.32V10.252c0-1.968,0.979-2.951,2.939-2.951
				c1.884,0,3.089,0.075,3.617,0.227c1.23,0.379,1.846,1.287,1.846,2.725V39.85c0,2.928,1.779,4.882,5.336,5.865
				c1.061,0.254,2.314,0.443,3.767,0.568c1.45,0.127,3.16,0.189,5.128,0.189h11.582c4.414,0,7.38-0.239,8.895-0.719
				c3.557-0.934,5.336-2.889,5.336-5.867V10.252c0-1.463,0.596-2.371,1.787-2.725c0.481-0.151,1.697-0.227,3.649-0.227
				c1.977,0,2.966,0.983,2.966,2.951V40.417z"/>
		</g>
		<circle cx="283.664" cy="11.314" r="6.459"/>
	</g>
	<g>
		<g>
			<path d="M351.511,11.16c0,1.994-0.984,2.99-2.952,2.99h-18.659v36.258c0,1.994-0.975,2.99-2.928,2.99
				c-1.977,0-3.205-0.075-3.688-0.227c-1.191-0.354-1.787-1.273-1.787-2.764V14.15h-18.508c-1.992,0-2.989-0.996-2.989-2.99
				c0-1.361,0.151-2.295,0.454-2.8c0.403-0.706,1.249-1.06,2.535-1.06h45.569C350.526,7.301,351.511,8.587,351.511,11.16z"/>
		</g>
		<circle cx="347.483" cy="10.598" r="6.459"/>
	</g>
	<g>
		<g>
			<path d="M459.986,40.035c0,8.623-8.263,12.934-24.787,12.934c-0.498,0-1.125-0.006-1.883-0.018
				c-0.759-0.014-1.635-0.033-2.628-0.057c-0.994-0.025-1.864-0.043-2.609-0.057c-0.745-0.012-1.366-0.018-1.863-0.018
				c-11.63,0-18.625-2.187-20.985-6.561c-0.82-1.516-1.23-3.59-1.23-6.225V10.327c0-1.938,0.965-2.907,2.895-2.907
				c1.855,0,3.043,0.074,3.562,0.223c1.212,0.373,1.818,1.268,1.818,2.685v29.148c0,2.884,1.752,4.809,5.256,5.778
				c1.043,0.248,2.279,0.436,3.708,0.559c1.429,0.125,3.112,0.186,5.051,0.186h11.406c4.348,0,7.269-0.234,8.759-0.707
				c3.504-0.92,5.256-2.846,5.256-5.777V10.327c0-1.44,0.587-2.335,1.761-2.685c0.474-0.148,1.672-0.223,3.595-0.223
				c1.945,0,2.92,0.969,2.92,2.907V40.035z"/>
		</g>
		<circle cx="455.865" cy="11.373" r="6.361"/>
	</g>
	<g>
		<g>
			<path d="M523.549,41.743c0,2.436-0.386,4.337-1.155,5.703c-2.063,3.702-8.3,5.554-18.712,5.554h-28.664
				c-1.914,0-2.87-0.981-2.87-2.944c0-1.343,0.149-2.274,0.447-2.796c0.423-0.721,1.229-1.08,2.423-1.08h28.664
				c7.729,0,11.592-1.43,11.592-4.287v-3.914c0-2.783-3.74-4.299-11.219-4.547L490.3,32.984c-0.646-0.025-1.56-0.068-2.739-0.131
				c-1.181-0.062-2.628-0.156-4.343-0.279c-2.981-0.348-5.542-1.33-7.679-2.945c-2.336-1.789-3.504-4.137-3.504-7.045v-3.43
				c0-5.293,2.932-8.783,8.797-10.474c2.809-0.721,7.952-1.081,15.432-1.081c1.938,0,2.908,1.268,2.908,3.803
				c0,1.465-0.584,2.385-1.752,2.758c-0.174,0.1-1.355,0.148-3.541,0.148c-9.046,0-13.568,1.592-13.568,4.771v3.168
				c0,1.964,1.689,3.244,5.069,3.84c0.646,0.125,1.584,0.219,2.813,0.279c1.23,0.062,2.74,0.094,4.529,0.094h11.07
				c5.293,0,9.469,0.684,12.524,2.05c4.821,1.987,7.231,5.044,7.231,9.169V41.743z"/>
		</g>
		<circle cx="497.297" cy="10.666" r="6.361"/>
	</g>
</g>
<g id="Description">
</g>
</svg>
