<?xml version="1.0" encoding="utf-8"?>
<!-- Generator: Adobe Illustrator 16.0.0, SVG Export Plug-In . SVG Version: 6.00 Build 0)  -->
<!DOCTYPE svg PUBLIC "-//W3C//DTD SVG 1.1//EN" "http://www.w3.org/Graphics/SVG/1.1/DTD/svg11.dtd">
<svg version="1.1" id="Layer_1" xmlns="http://www.w3.org/2000/svg" xmlns:xlink="http://www.w3.org/1999/xlink" x="0px" y="0px"
	 width="496.184px" height="84.5px" viewBox="8.65 0 496.184 84.5" enable-background="new 8.65 0 496.184 84.5"
	 xml:space="preserve">
<g id="Description">
</g>
<g id="Layer_1_2_">
	<g>
		<circle fill="#222222" cx="114.491" cy="68.991" r="9.188"/>
		<path fill="#222222" d="M120.029,67.191L79.976,10.503c-0.18-0.285-0.315-0.526-0.404-0.727c-0.088-0.195-0.168-0.35-0.24-0.457
			c-0.934-1.578-2.802-2.369-5.6-2.369c-3.77,0-6.426,1.185-7.968,3.553L27.971,68.27c-0.213,0.322-0.323,0.68-0.323,1.076
			c0,1.258,0.683,2.352,2.045,3.285c1.218,0.859,2.493,1.293,3.822,1.293c1.328,0,2.566-0.844,3.713-2.527l10.608-15.398h27.25
			v-9.957h-20.25l18.249-26.706l18.143,26.782l7,9.865l10.604,15.4c1.436,2.156,3.303,3.234,5.6,3.234
			c1.648,0,3.033-0.557,4.146-1.668c1.109-1.113,1.667-2.496,1.667-4.145C120.243,67.98,120.169,67.441,120.029,67.191z"/>
		<circle fill="#222222" cx="75.131" cy="50.616" r="9.187"/>
	</g>
	<g>
		<path fill="#222222" d="M214.238,50.08c-0.073-0.396-0.306-0.951-0.697-1.67c-0.396-0.719-0.936-1.6-1.617-2.639
			c-1.328-2.08-1.991-3.213-1.991-3.395c0-0.25,0.665-1.523,1.991-3.821c0.682-1.147,1.22-2.101,1.617-2.854
			c0.392-0.754,0.624-1.291,0.697-1.615c0.288-1.647,0.432-4.34,0.432-8.076c0-3.838-1.526-7.213-4.577-10.119
			c-2.763-2.584-6.136-4.576-10.119-5.542c-3.697-0.718-7.79-1.289-12.275-1.289h-50.011c-2.8,0-4.009,1.827-4.009,4.625v57.117
			c0,2.836,1.209,3.688,4.008,3.688h7.371v-9.283V46.041H187.9c9.877,0,14.817,2.99,14.817,7.51c0,1.363-0.008,2.805-0.027,3.592
			c-0.021,0.793-0.045,1.852-0.082,2.062c-0.683,4.127-5.854,6.748-15.518,6.748h-23.543v8.533h24.85
			c6.963,0,12.741-0.881,17.337-3.217c5.957-3.014,8.936-7.52,8.936-13.801c0-1.977-0.036-3.51-0.106-4.746
			C214.487,51.486,214.381,50.654,214.238,50.08z M187.683,37.505h-42.626V19.016h42.144c9.987,0,15.157,2.387,15.518,6.944
			c0.215,2.475,0.325,4.293,0.325,5.478C203.043,35.496,197.922,37.505,187.683,37.505z"/>
		<circle fill="#222222" cx="163.129" cy="70.014" r="9.188"/>
	</g>
	<g>
		<circle fill="#222222" cx="276.914" cy="70.322" r="9.188"/>
		<path fill="#222222" d="M294.93,11.751c-3.875-1.653-10.902-2.691-20.34-2.691h-18.627c-20.208,0-31.292,6.348-31.292,18.191
			v30.256c0,6.676,4.118,11.201,11.366,14.143c4.736,2.082,11.708,2.84,19.926,2.84h2.844v-8.533h-2.88
			c-12.216,0-17.033-3.422-17.033-8.773V27.52c0-5.528,4.817-8.505,17.033-8.505h18.966c12.107,0,18.051,2.979,18.051,8.505v29.662
			c0,5.354-5.926,8.773-17.994,8.773h-3.342v8.533h2.982c20.275,0,31.154-5.303,31.154-17.037v-30.2
			C305.746,19.753,301.895,14.44,294.93,11.751z"/>
	</g>
	<g>
		<g>
			<path fill="#222222" d="M396.603,56.592c0,12.453-11.934,18.68-35.797,18.68c-0.721,0-1.625-0.008-2.719-0.025
				c-1.1-0.021-2.362-0.045-3.797-0.08c-1.437-0.037-2.691-0.064-3.769-0.084c-1.076-0.021-1.974-0.031-2.691-0.031
				c-16.797,0-26.897-3.158-30.31-9.473c-1.183-2.188-1.776-5.188-1.776-8.988V13.685c0-2.799,1.394-4.197,4.181-4.197
				c2.681,0,4.393,0.106,5.145,0.322c1.751,0.54,2.626,1.831,2.626,3.876v42.099c0,4.164,2.531,6.943,7.59,8.342
				c1.509,0.361,3.292,0.631,5.358,0.811c2.062,0.182,4.495,0.27,7.293,0.27h16.476c6.277,0,10.497-0.342,12.652-1.025
				c5.06-1.33,7.59-4.109,7.59-8.346V13.685c0-2.081,0.85-3.373,2.542-3.876c0.685-0.215,2.414-0.323,5.188-0.323
				c2.815,0,4.222,1.399,4.222,4.198v42.908H396.603z"/>
		</g>
		<circle fill="#222222" cx="390.652" cy="15.195" r="9.188"/>
	</g>
	<g>
		<g>
			<path fill="#222222" d="M483.107,14.977c0,2.835-1.399,4.252-4.199,4.252h-26.539v51.574c0,2.836-1.391,4.252-4.168,4.252
				c-2.812,0-4.559-0.105-5.244-0.324c-1.694-0.502-2.541-1.807-2.541-3.932v-51.57H414.09c-2.834,0-4.251-1.417-4.251-4.252
				c0-1.937,0.211-3.265,0.645-3.983c0.572-1.004,1.776-1.508,3.606-1.508h64.814C481.703,9.488,483.107,11.317,483.107,14.977z"/>
		</g>
		<circle fill="#222222" cx="477.375" cy="14.178" r="9.188"/>
	</g>
</g>
<g id="Description_1_">
</g>
</svg>
