<?xml version="1.0" encoding="utf-8"?>
<!-- Generator: Adobe Illustrator 16.0.0, SVG Export Plug-In . SVG Version: 6.00 Build 0)  -->
<!DOCTYPE svg PUBLIC "-//W3C//DTD SVG 1.1//EN" "http://www.w3.org/Graphics/SVG/1.1/DTD/svg11.dtd">
<svg version="1.1" id="Layer_1" xmlns="http://www.w3.org/2000/svg" xmlns:xlink="http://www.w3.org/1999/xlink" x="0px" y="0px"
	 width="496.184px" height="84.5px" viewBox="0 0 496.184 84.5" enable-background="new 0 0 496.184 84.5" xml:space="preserve">
<g id="Description">
</g>
<g id="Layer_1_2_">
	<g>
		<circle cx="105.843" cy="68.991" r="9.188"/>
		<path d="M111.381,67.191L71.328,10.503c-0.18-0.285-0.315-0.526-0.404-0.727c-0.088-0.195-0.168-0.35-0.24-0.457
			c-0.934-1.578-2.802-2.369-5.6-2.369c-3.77,0-6.426,1.185-7.968,3.553L19.323,68.27C19.11,68.592,19,68.951,19,69.346
			c0,1.258,0.683,2.354,2.045,3.285c1.218,0.859,2.493,1.293,3.822,1.293c1.328,0,2.566-0.844,3.713-2.527L39.188,56h27.25v-9.957
			h-20.25l18.249-26.706L82.58,46.119l7,9.863l10.604,15.4c1.436,2.156,3.303,3.234,5.6,3.234c1.648,0,3.033-0.557,4.146-1.668
			c1.109-1.113,1.667-2.496,1.667-4.146C111.595,67.98,111.521,67.441,111.381,67.191z"/>
		<circle cx="66.483" cy="50.616" r="9.187"/>
	</g>
	<g>
		<path d="M205.59,50.08c-0.073-0.396-0.306-0.951-0.697-1.67c-0.396-0.719-0.936-1.6-1.617-2.639
			c-1.328-2.08-1.991-3.213-1.991-3.396c0-0.25,0.665-1.523,1.991-3.821c0.682-1.146,1.22-2.101,1.617-2.854
			c0.392-0.754,0.624-1.291,0.697-1.615c0.288-1.647,0.432-4.34,0.432-8.076c0-3.838-1.526-7.213-4.577-10.119
			c-2.763-2.584-6.136-4.576-10.119-5.542c-3.697-0.718-7.79-1.289-12.275-1.289H129.04c-2.8,0-4.009,1.827-4.009,4.625v57.117
			c0,2.836,1.209,3.688,4.008,3.688h7.371v-9.283V46.041h42.842c9.877,0,14.817,2.99,14.817,7.51c0,1.363-0.008,2.805-0.027,3.592
			c-0.021,0.793-0.045,1.854-0.082,2.062c-0.683,4.127-5.854,6.748-15.518,6.748h-23.543v8.533h24.85
			c6.963,0,12.741-0.881,17.337-3.217c5.957-3.016,8.936-7.521,8.936-13.803c0-1.977-0.036-3.51-0.106-4.744
			C205.839,51.486,205.733,50.654,205.59,50.08z M179.035,37.505h-42.626V19.016h42.144c9.987,0,15.157,2.387,15.518,6.944
			c0.215,2.475,0.325,4.293,0.325,5.478C194.395,35.496,189.274,37.505,179.035,37.505z"/>
		<circle cx="154.481" cy="70.014" r="9.188"/>
	</g>
	<g>
		<circle cx="268.266" cy="70.322" r="9.188"/>
		<path d="M286.281,11.751c-3.875-1.653-10.902-2.691-20.34-2.691h-18.626c-20.208,0-31.292,6.348-31.292,18.191v30.256
			c0,6.677,4.118,11.201,11.366,14.144c4.736,2.082,11.708,2.841,19.926,2.841h2.843v-8.533h-2.879
			c-12.216,0-17.033-3.422-17.033-8.772V27.52c0-5.528,4.817-8.505,17.033-8.505h18.965c12.107,0,18.051,2.979,18.051,8.505v29.662
			c0,5.354-5.926,8.773-17.992,8.773h-3.344v8.533h2.982c20.275,0,31.154-5.303,31.154-17.037v-30.2
			C297.098,19.753,293.246,14.44,286.281,11.751z"/>
	</g>
	<g>
		<g>
			<path d="M387.955,56.592c0,12.453-11.934,18.68-35.797,18.68c-0.721,0-1.625-0.008-2.719-0.023
				c-1.1-0.021-2.363-0.045-3.797-0.08c-1.439-0.037-2.691-0.062-3.77-0.084c-1.076-0.021-1.975-0.031-2.691-0.031
				c-16.797,0-26.896-3.156-30.311-9.473c-1.184-2.188-1.775-5.188-1.775-8.988V13.685c0-2.799,1.395-4.197,4.182-4.197
				c2.682,0,4.395,0.104,5.146,0.322c1.75,0.54,2.625,1.831,2.625,3.876v42.099c0,4.164,2.529,6.943,7.59,8.342
				c1.51,0.361,3.293,0.631,5.357,0.811c2.062,0.184,4.494,0.271,7.293,0.271h16.477c6.277,0,10.498-0.342,12.652-1.023
				c5.061-1.33,7.59-4.109,7.59-8.348V13.685c0-2.081,0.85-3.373,2.543-3.876c0.684-0.215,2.414-0.323,5.188-0.323
				c2.814,0,4.223,1.399,4.223,4.198v42.908H387.955z"/>
		</g>
		<circle cx="382.004" cy="15.195" r="9.188"/>
	</g>
	<g>
		<g>
			<path d="M474.459,14.977c0,2.835-1.398,4.252-4.199,4.252h-26.539v51.574c0,2.836-1.393,4.252-4.168,4.252
				c-2.812,0-4.561-0.104-5.244-0.324c-1.693-0.502-2.541-1.807-2.541-3.932v-51.57h-26.326c-2.834,0-4.25-1.417-4.25-4.252
				c0-1.937,0.211-3.265,0.646-3.983c0.57-1.004,1.773-1.508,3.604-1.508h64.814C473.055,9.488,474.459,11.317,474.459,14.977z"/>
		</g>
		<circle cx="468.727" cy="14.178" r="9.188"/>
	</g>
</g>
<g id="Description_1_">
</g>
</svg>
