<?xml version="1.0" encoding="utf-8"?>
<!-- Generator: Adobe Illustrator 16.0.0, SVG Export Plug-In . SVG Version: 6.00 Build 0)  -->
<!DOCTYPE svg PUBLIC "-//W3C//DTD SVG 1.1//EN" "http://www.w3.org/Graphics/SVG/1.1/DTD/svg11.dtd">
<svg version="1.1" id="Layer_1" xmlns="http://www.w3.org/2000/svg" xmlns:xlink="http://www.w3.org/1999/xlink" x="0px" y="0px"
	 width="660.333px" height="83px" viewBox="0 0 660.333 83" enable-background="new 0 0 660.333 83" xml:space="preserve">
<g>
	<circle cx="458.717" cy="68.227" r="9"/>
	<path d="M464.141,66.463l-39.234-55.529c-0.176-0.281-0.309-0.518-0.396-0.712c-0.088-0.192-0.166-0.343-0.234-0.448
		c-0.914-1.547-2.742-2.32-5.484-2.32c-3.691,0-6.293,1.16-7.805,3.48l-37.021,56.583c-0.211,0.315-0.314,0.668-0.314,1.056
		c0,1.229,0.668,2.303,2.004,3.217c1.191,0.844,2.441,1.267,3.744,1.267c1.301,0,2.514-0.824,3.639-2.477l10.389-15.08H424v-9
		H400.28l17.877-26.537l17.77,26.045l6.855,9.568l10.389,15.041c1.406,2.109,3.234,3.144,5.484,3.144
		c1.617,0,2.971-0.556,4.061-1.646s1.637-2.448,1.637-4.065C464.352,67.241,464.28,66.709,464.141,66.463z"/>
	<circle cx="423.801" cy="50.227" r="9"/>
</g>
<g>
	<circle cx="154.167" cy="68.383" r="9"/>
	<path d="M175.702,11.57c-3.797-1.617-10.386-2.07-19.632-2.07h-18.246C118.03,9.5,108,14.59,108,26.191v29.637
		c0,6.539,3.618,11.49,10.72,14.373c4.641,2.039,11.054,3.299,19.104,3.299H141v-9h-3.211C125.824,64.5,120,60.751,120,55.512
		V26.455c0-5.413,5.824-7.955,17.789-7.955h18.58c11.859,0,17.631,2.542,17.631,7.955v29.057c0,5.239-5.754,8.988-17.578,8.988H153
		v9h3.07c19.862,0,29.93-6.229,29.93-17.725V26.191C186,18.845,182.522,14.207,175.702,11.57z"/>
</g>
<g>
	<g>
		<path d="M360.653,14.648c0,2.778-1.371,4.166-4.113,4.166h-25.999v50.52c0,2.777-1.359,4.166-4.078,4.166
			c-2.756,0-4.467-0.105-5.139-0.316c-1.66-0.49-2.49-1.772-2.49-3.85v-50.52h-25.787c-2.777,0-4.166-1.388-4.166-4.166
			c0-1.898,0.211-3.198,0.633-3.902c0.562-0.983,1.74-1.477,3.533-1.477h63.493C359.282,9.27,360.653,11.062,360.653,14.648z"/>
	</g>
	<circle cx="355.042" cy="13.863" r="9"/>
</g>
<g>
	<g>
		<path d="M91.721,14.734c0,2.778-1.371,4.166-4.113,4.166H45.895c-10.125,0-15.188,2.022-15.188,6.064v31.8
			c0,4.78,5.607,7.172,16.822,7.172h39.814c2.848,0,4.271,1.601,4.271,4.799c0,3.233-1.424,4.853-4.271,4.853H47.529
			c-5.379,0-9.246-0.211-11.602-0.633c-2.566-0.492-5.238-1.441-8.016-2.849c-3.164-1.651-5.379-3.375-6.645-5.168
			C19.756,62.898,19,60.244,19,56.975V25.017c0-4.042,1.846-7.488,5.537-10.336c3.094-2.354,6.855-3.937,11.285-4.746
			c1.125-0.175,2.496-0.316,4.113-0.422c1.617-0.105,3.533-0.158,5.748-0.158h41.924C90.35,9.355,91.721,11.148,91.721,14.734z"/>
	</g>
	<circle cx="88.721" cy="68.645" r="9"/>
</g>
<g>
	<g>
		<path d="M275.523,66.17c0,4.887-2.145,7.33-6.434,7.33c-1.969,0-4.201-1.037-6.697-3.111L207.707,23.93v44.982
			c0,2.074-0.844,3.375-2.531,3.902c-0.492,0.068-1.16,0.131-2.004,0.185c-0.844,0.053-1.863,0.079-3.059,0.079
			c-2.742,0-4.113-1.389-4.113-4.166V15.334c0-4.641,2.006-6.961,6.017-6.961c2.533,0,5.136,1.125,7.811,3.375l53.989,45.932V12.961
			c0-2.039,0.84-3.322,2.52-3.85c0.49-0.07,1.154-0.132,1.995-0.185c0.839-0.053,1.854-0.079,3.046-0.079
			c2.764,0,4.146,1.371,4.146,4.113L275.523,66.17L275.523,66.17z"/>
	</g>
	<circle cx="269.881" cy="12.656" r="9"/>
</g>
<g>
	<g>
		<path d="M550.44,14.734c0,2.778-1.371,4.166-4.113,4.166h-41.713c-10.125,0-15.189,2.022-15.189,6.064v31.8
			c0,4.78,5.607,7.172,16.822,7.172h39.814c2.848,0,4.271,1.601,4.271,4.799c0,3.233-1.424,4.853-4.271,4.853h-39.814
			c-5.379,0-9.246-0.211-11.602-0.633c-2.566-0.492-5.238-1.441-8.016-2.849c-3.164-1.651-5.379-3.375-6.645-5.168
			c-1.516-2.039-2.271-4.692-2.271-7.963V25.017c0-4.042,1.85-7.488,5.537-10.336c3.094-2.354,6.855-3.937,11.285-4.746
			c1.125-0.175,2.496-0.316,4.113-0.422c1.617-0.105,3.533-0.158,5.748-0.158h41.924C549.069,9.355,550.44,11.148,550.44,14.734z"/>
	</g>
	<circle cx="547.44" cy="68.645" r="9"/>
</g>
<g>
	<g>
		<path d="M638.211,14.648c0,2.778-1.371,4.166-4.113,4.166H608.1v50.52c0,2.777-1.359,4.166-4.078,4.166
			c-2.756,0-4.467-0.105-5.139-0.316c-1.66-0.49-2.49-1.772-2.49-3.85v-50.52h-25.787c-2.777,0-4.166-1.388-4.166-4.166
			c0-1.898,0.211-3.198,0.633-3.902c0.562-0.983,1.74-1.477,3.533-1.477h63.492C636.84,9.27,638.211,11.062,638.211,14.648z"/>
	</g>
	<circle cx="632.6" cy="13.863" r="9"/>
</g>
</svg>
