<?xml version="1.0" encoding="utf-8"?>
<!-- Generator: Adobe Illustrator 16.0.0, SVG Export Plug-In . SVG Version: 6.00 Build 0)  -->
<!DOCTYPE svg PUBLIC "-//W3C//DTD SVG 1.1//EN" "http://www.w3.org/Graphics/SVG/1.1/DTD/svg11.dtd">
<svg version="1.1" id="Layer_1" xmlns="http://www.w3.org/2000/svg" xmlns:xlink="http://www.w3.org/1999/xlink" x="0px" y="0px"
	 width="643.438px" height="148px" viewBox="0 0 643.438 148" enable-background="new 0 0 643.438 148" xml:space="preserve">
<g id="Layer_1_1_">
	<g>
		<circle cx="181.148" cy="50.247" r="6.445"/>
		<path d="M196.57,9.384c-2.719-1.158-7.438-1.661-14.059-1.661h-13.066c-14.175,0-21.357,4.003-21.357,12.31v21.224
			c0,4.682,2.591,8.049,7.677,10.114c3.322,1.46,7.915,2.183,13.68,2.183h2.274v-6.444h-2.299c-8.568,0-12.739-2.327-12.739-6.079
			V20.222c0-3.876,4.171-6.055,12.739-6.055h13.305c8.493,0,12.625,2.178,12.625,6.055V41.03c0,3.751-4.121,6.079-12.588,6.079
			h-2.45v6.444h2.198c14.224,0,21.433-4.102,21.433-12.334V20.033C203.944,14.772,201.454,11.272,196.57,9.384z"/>
	</g>
	<g>
		<g>
			<path d="M71.328,30.926c0,2.316-1.045,3.475-3.134,3.475H28.051v16.351c0,1.989-0.982,2.983-2.945,2.983
				c-2.09,0-3.299-0.088-3.625-0.264c-1.208-0.377-1.812-1.284-1.812-2.72V18.465c0-3.676,2.366-6.495,7.1-8.459
				c3.625-1.51,7.602-2.266,11.933-2.266h6.269c1.988,0,2.983,1.284,2.983,3.852c0,1.989-0.996,2.983-2.983,2.983
				c-11.279,0-16.918,1.397-16.918,4.192v8.724h40.143C70.282,27.49,71.328,28.636,71.328,30.926z"/>
		</g>
		<circle cx="46.213" cy="10.945" r="6.445"/>
	</g>
	<g>
		<g>
			<path d="M291.347,50.64c0,1.46-0.604,2.379-1.812,2.757c-0.505,0.151-1.713,0.227-3.625,0.227c-1.963,0-2.945-0.995-2.945-2.983
				V20.881l-24.735,30.512c-1.31,1.611-3.085,2.417-5.325,2.417c-2.266,0-4.054-0.806-5.362-2.417L222.354,20.73V50.64
				c0,1.988-0.982,2.983-2.946,2.983c-1.939,0-3.148-0.075-3.625-0.227c-1.208-0.378-1.812-1.297-1.812-2.757V12.045
				c0-2.845,1.56-4.267,4.683-4.267c2.039,0,3.675,0.73,4.909,2.19l29.456,34.856L281.794,9.93c1.208-1.46,2.794-2.19,4.758-2.19
				c3.197,0,4.796,1.548,4.796,4.645V50.64H291.347z"/>
		</g>
		<circle cx="287.086" cy="50.334" r="6.445"/>
	</g>
	<g>
		<g>
			<path d="M138.187,24.922c0,4.154-2.19,7.188-6.571,9.102c-3.475,1.41-7.477,2.115-12.009,2.115h-13.821l28.021,11.895
				c1.484,0.654,2.228,1.625,2.228,2.908c0,1.889-1.65,2.833-4.947,2.833c-1.31,0-2.342-0.102-3.096-0.303L89.736,37.12v13.632
				c0,1.989-0.982,2.983-2.945,2.983c-2.09,0-3.298-0.088-3.625-0.264c-1.209-0.377-1.812-1.284-1.812-2.72V10.686
				c0-1.964,0.982-2.946,2.945-2.946h33.761c5.236,0,9.541,0.68,12.915,2.04c4.808,1.938,7.212,5.136,7.212,9.592V24.922
				L138.187,24.922z M129.803,24.998v-5.815c0-3.071-3.927-4.607-11.782-4.607H89.737v14.728h29.794
				C126.379,29.303,129.803,27.868,129.803,24.998z"/>
		</g>
		<circle cx="131.025" cy="50.448" r="6.445"/>
	</g>
	<g>
		<circle cx="376.645" cy="50.247" r="6.445"/>
		<path d="M392.066,9.384c-2.719-1.158-7.437-1.661-14.059-1.661h-13.066c-14.174,0-21.357,4.003-21.357,12.31v21.224
			c0,4.682,2.591,8.049,7.676,10.114c3.323,1.46,7.916,2.183,13.681,2.183h2.274v-6.444h-2.299c-8.568,0-12.739-2.327-12.739-6.079
			V20.222c0-3.876,4.17-6.055,12.739-6.055h13.305c8.492,0,12.625,2.178,12.625,6.055V41.03c0,3.751-4.121,6.079-12.588,6.079h-2.45
			v6.444h2.198c14.224,0,21.433-4.102,21.433-12.334V20.033C399.44,14.772,396.949,11.272,392.066,9.384z"/>
	</g>
	<g>
		<g>
			<path d="M466.187,40.449c0,8.736-8.371,13.104-25.113,13.104c-0.505,0-1.14-0.006-1.908-0.018
				c-0.768-0.014-1.654-0.032-2.662-0.058c-1.007-0.025-1.888-0.044-2.643-0.056c-0.755-0.013-1.385-0.02-1.888-0.02
				c-11.783,0-18.87-2.215-21.261-6.646c-0.831-1.535-1.246-3.638-1.246-6.307V10.352c0-1.963,0.977-2.945,2.933-2.945
				c1.879,0,3.083,0.075,3.609,0.226c1.228,0.377,1.842,1.284,1.842,2.719v29.531c0,2.921,1.774,4.871,5.324,5.854
				c1.058,0.253,2.31,0.441,3.758,0.566c1.447,0.126,3.153,0.188,5.118,0.188h11.556c4.404,0,7.364-0.237,8.875-0.718
				c3.55-0.931,5.324-2.881,5.324-5.853V10.352c0-1.459,0.595-2.366,1.784-2.719c0.481-0.151,1.693-0.226,3.642-0.226
				c1.972,0,2.958,0.982,2.958,2.945v30.097H466.187z"/>
		</g>
		<circle cx="462.012" cy="11.412" r="6.445"/>
	</g>
	<g>
		<g>
			<path d="M535.315,24.675c0,4.154-2.191,7.188-6.571,9.101c-3.476,1.41-7.477,2.115-12.01,2.115h-13.821l28.02,11.895
				c1.485,0.655,2.228,1.624,2.228,2.908c0,1.888-1.65,2.832-4.947,2.832c-1.309,0-2.341-0.101-3.097-0.302l-38.254-16.352v13.633
				c0,1.988-0.981,2.982-2.945,2.982c-2.09,0-3.298-0.088-3.624-0.264c-1.21-0.378-1.812-1.284-1.812-2.719V10.438
				c0-1.963,0.982-2.945,2.945-2.945h33.761c5.236,0,9.54,0.679,12.915,2.039c4.807,1.938,7.212,5.136,7.212,9.592V24.675z
				 M526.932,24.751v-5.815c0-3.071-3.927-4.607-11.782-4.607h-28.285v14.727h29.795C523.507,29.057,526.932,27.622,526.932,24.751z
				"/>
		</g>
		<circle cx="528.155" cy="50.202" r="6.445"/>
	</g>
	<g>
		<path d="M345.946,112.824c-0.07-0.385-0.299-0.93-0.686-1.635c-0.389-0.701-0.916-1.562-1.582-2.584
			c-1.301-2.037-1.951-3.146-1.951-3.321c0-0.245,0.65-1.493,1.951-3.744c0.666-1.124,1.193-2.057,1.582-2.795
			c0.387-0.738,0.613-1.266,0.686-1.582c0.281-1.616,0.422-4.254,0.422-7.91c0-3.762-1.494-7.066-4.482-9.914
			c-2.707-2.531-6.012-4.154-9.914-5.104c-3.621-0.703-7.629-0.938-12.023-0.938h-48.99c-2.742,0-4.232,1.138-4.232,3.88v55.951
			c0,2.778,1.49,4.169,4.232,4.169h7.768v-9.652v-17.348h41.42c9.676,0,14.516,2.214,14.516,6.645c0,1.336-0.01,2.39-0.025,3.162
			c-0.02,0.774-0.045,1.592-0.08,1.803c-0.67,4.043-5.736,6.391-15.201,6.391h-26.629v9h27.908c6.82,0,12.479-1.145,16.979-3.43
			c5.836-2.952,8.754-7.506,8.754-13.659c0-1.933-0.033-3.506-0.104-4.72C346.19,114.275,346.085,113.389,345.946,112.824z
			 M319.935,101.297h-41.209v-19h40.734c9.781,0,14.848,2.39,15.199,6.853c0.213,2.426,0.316,4.625,0.316,5.785
			C334.978,98.907,329.962,101.297,319.935,101.297z"/>
		<circle cx="291.698" cy="132.354" r="9"/>
	</g>
	<g>
		<circle cx="499.892" cy="132.68" r="9"/>
		<path d="M521.427,75.616c-3.797-1.616-10.385-2.319-19.631-2.319H483.55c-19.795,0-29.824,5.59-29.824,17.19v29.638
			c0,6.539,3.617,11.24,10.719,14.123c4.643,2.039,11.055,3.049,19.105,3.049h3.176v-9h-3.211c-11.965,0-17.789-3.249-17.789-8.488
			V90.752c0-5.413,5.824-8.455,17.789-8.455h18.58c11.857,0,17.631,3.042,17.631,8.455v29.057c0,5.239-5.754,8.488-17.578,8.488
			h-3.422v9h3.07c19.861,0,29.93-5.729,29.93-17.225V90.487C531.726,83.142,528.247,78.254,521.427,75.616z"/>
	</g>
	<g>
		<g>
			<path d="M624.827,121.038c0,5.836-2.9,10.178-8.701,13.024c-4.5,2.215-9.984,3.322-16.453,3.322h-14.546h-12.031
				c-6.961,0-12.814-1.002-17.561-3.006c-6.539-2.742-9.809-7.119-9.809-13.131V89.081c0-5.766,3.338-10.037,10.02-12.814
				c5.273-2.074,11.092-3.111,17.455-3.111h10.547c2.848,0,4.271,1.582,4.271,4.746c0,3.199-1.424,4.799-4.271,4.799h-1.582h-1.055
				h-0.58c-0.316,0-0.494-0.018-0.527-0.053c-0.811-0.035-1.529-0.061-2.162-0.078s-1.145-0.026-1.529-0.026
				c-12.586,0-18.879,2.18-18.879,6.539v32.115c0,4.358,5.273,6.539,15.82,6.539h11.871h14.548c2.531,0,5.221-0.476,8.068-1.424
				c3.586-1.195,5.379-2.812,5.379-4.853v-3.334l11.707,0.25V121.038L624.827,121.038z"/>
		</g>
		<circle cx="585.249" cy="77.542" r="9"/>
		<path d="M592.249,100.444h7.423c6.467,0,11.951,1.107,16.453,3.322c5.801,2.849,8.701,7.189,8.701,13.025v3.167l-11.707,0.416
			v-4.005c0-2.039-1.793-3.656-5.381-4.853c-2.848-0.949-5.535-1.424-8.066-1.424h-7.423c-2.5,0-4.125-1.561-4.125-4.808
			C588.124,102.118,589.667,100.444,592.249,100.444z"/>
	</g>
	<g>
		<g>
			<path d="M433.247,133.22c0,2.777-1.371,4.166-4.113,4.166h-37.547c-8.58,0-15.277-0.772-20.092-2.319
				c-7.42-2.566-11.129-7.437-11.129-14.607v-43.19c0-2.742,1.371-4.113,4.113-4.113c2.637,0,4.324,0.105,5.062,0.316
				c1.688,0.492,2.531,1.758,2.531,3.797v43.189c0,3.34,2.705,5.537,8.121,6.592c1.723,0.457,5.729,0.687,12.023,0.687h36.914
				C431.876,127.734,433.247,129.564,433.247,133.22z"/>
		</g>
		<circle cx="430.622" cy="132.412" r="9"/>
	</g>
</g>
</svg>
