<?xml version="1.0" encoding="utf-8"?>
<!-- Generator: Adobe Illustrator 16.0.0, SVG Export Plug-In . SVG Version: 6.00 Build 0)  -->
<!DOCTYPE svg PUBLIC "-//W3C//DTD SVG 1.1//EN" "http://www.w3.org/Graphics/SVG/1.1/DTD/svg11.dtd">
<svg version="1.1" id="Layer_1" xmlns="http://www.w3.org/2000/svg" xmlns:xlink="http://www.w3.org/1999/xlink" x="0px" y="0px"
	 width="524.219px" height="148px" viewBox="0 0 524.219 148" enable-background="new 0 0 524.219 148" xml:space="preserve">
<g id="Layer_1_1_">
	<g>
		<circle cx="175.221" cy="50.247" r="6.445"/>
		<path d="M190.643,9.384c-2.719-1.158-7.438-1.661-14.059-1.661h-13.066c-14.175,0-21.357,4.003-21.357,12.31v21.224
			c0,4.682,2.591,8.049,7.677,10.114c3.322,1.46,7.915,2.183,13.68,2.183h2.274V47.11h-2.299c-8.568,0-12.739-2.327-12.739-6.079
			V20.222c0-3.876,4.171-6.055,12.739-6.055h13.305c8.493,0,12.625,2.178,12.625,6.055V41.03c0,3.751-4.121,6.079-12.588,6.079
			h-2.45v6.444h2.198c14.224,0,21.433-4.102,21.433-12.334V20.033C198.017,14.772,195.527,11.272,190.643,9.384z"/>
	</g>
	<g>
		<g>
			<path d="M71.328,30.926c0,2.316-1.045,3.475-3.134,3.475H28.051v16.351c0,1.989-0.982,2.983-2.945,2.983
				c-2.09,0-3.299-0.088-3.625-0.264c-1.208-0.377-1.812-1.284-1.812-2.72V18.465c0-3.676,2.366-6.495,7.1-8.459
				c3.625-1.51,7.602-2.266,11.933-2.266h6.269c1.988,0,2.983,1.284,2.983,3.852c0,1.989-0.996,2.983-2.983,2.983
				c-11.279,0-16.918,1.397-16.918,4.192v8.724h40.143C70.282,27.49,71.328,28.636,71.328,30.926z"/>
		</g>
		<circle cx="46.213" cy="10.945" r="6.445"/>
	</g>
	<g>
		<g>
			<path d="M282.393,50.64c0,1.46-0.604,2.379-1.812,2.757c-0.506,0.151-1.713,0.227-3.625,0.227c-1.963,0-2.945-0.995-2.945-2.983
				v-29.76l-24.735,30.512c-1.31,1.611-3.085,2.417-5.325,2.417c-2.266,0-4.054-0.806-5.362-2.417l-25.19-30.663v29.91
				c0,1.988-0.982,2.983-2.946,2.983c-1.939,0-3.148-0.075-3.625-0.227c-1.208-0.378-1.812-1.297-1.812-2.757V12.045
				c0-2.845,1.56-4.267,4.683-4.267c2.039,0,3.675,0.73,4.909,2.19l29.456,34.856L272.839,9.93c1.208-1.46,2.794-2.19,4.759-2.19
				c3.196,0,4.795,1.548,4.795,4.645V50.64L282.393,50.64z"/>
		</g>
		<circle cx="278.131" cy="50.334" r="6.445"/>
	</g>
	<g>
		<g>
			<path d="M135.161,24.922c0,4.154-2.19,7.188-6.571,9.102c-3.475,1.41-7.477,2.115-12.009,2.115H102.76l28.021,11.895
				c1.484,0.654,2.228,1.625,2.228,2.908c0,1.889-1.65,2.833-4.947,2.833c-1.31,0-2.342-0.102-3.096-0.303L86.71,37.12v13.632
				c0,1.989-0.982,2.983-2.945,2.983c-2.09,0-3.298-0.088-3.625-0.264c-1.209-0.377-1.812-1.284-1.812-2.72V10.686
				c0-1.964,0.982-2.946,2.945-2.946h33.761c5.236,0,9.541,0.68,12.915,2.04c4.808,1.938,7.212,5.136,7.212,9.592V24.922
				L135.161,24.922z M126.777,24.998v-5.815c0-3.071-3.927-4.607-11.782-4.607H86.711v14.728h29.794
				C123.353,29.303,126.777,27.868,126.777,24.998z"/>
		</g>
		<circle cx="127.999" cy="50.448" r="6.445"/>
	</g>
	<g>
		<circle cx="353.229" cy="50.247" r="6.445"/>
		<path d="M368.651,9.384c-2.721-1.158-7.438-1.661-14.061-1.661h-13.064c-14.176,0-21.357,4.003-21.357,12.31v21.224
			c0,4.682,2.591,8.049,7.676,10.114c3.323,1.46,7.916,2.183,13.683,2.183h2.272V47.11h-2.299c-8.568,0-12.739-2.327-12.739-6.079
			V20.222c0-3.876,4.17-6.055,12.739-6.055h13.305c8.492,0,12.625,2.178,12.625,6.055V41.03c0,3.751-4.121,6.079-12.588,6.079h-2.45
			v6.444h2.198c14.225,0,21.435-4.102,21.435-12.334V20.033C376.025,14.772,373.534,11.272,368.651,9.384z"/>
	</g>
	<g>
		<g>
			<path d="M439.746,40.449c0,8.736-8.371,13.104-25.113,13.104c-0.505,0-1.141-0.006-1.908-0.018
				c-0.768-0.014-1.653-0.032-2.661-0.058c-1.008-0.025-1.889-0.044-2.644-0.056c-0.755-0.013-1.386-0.02-1.889-0.02
				c-11.782,0-18.869-2.215-21.262-6.646c-0.83-1.535-1.245-3.638-1.245-6.307V10.352c0-1.963,0.978-2.945,2.934-2.945
				c1.879,0,3.083,0.075,3.608,0.226c1.229,0.377,1.842,1.284,1.842,2.719v29.531c0,2.921,1.773,4.871,5.324,5.854
				c1.059,0.253,2.311,0.44,3.758,0.565c1.447,0.126,3.152,0.188,5.118,0.188h11.557c4.403,0,7.363-0.237,8.875-0.718
				c3.55-0.931,5.323-2.881,5.323-5.853V10.352c0-1.459,0.596-2.366,1.784-2.719c0.48-0.151,1.692-0.226,3.643-0.226
				c1.972,0,2.958,0.982,2.958,2.945v30.097H439.746z"/>
		</g>
		<circle cx="435.57" cy="11.412" r="6.445"/>
	</g>
	<g>
		<g>
			<path d="M505.849,24.675c0,4.154-2.19,7.188-6.57,9.101c-3.478,1.41-7.479,2.115-12.011,2.115h-13.82l28.02,11.895
				c1.485,0.655,2.229,1.624,2.229,2.908c0,1.888-1.65,2.832-4.947,2.832c-1.309,0-2.341-0.101-3.097-0.302l-38.254-16.352v13.633
				c0,1.988-0.981,2.982-2.945,2.982c-2.09,0-3.298-0.088-3.624-0.264c-1.21-0.378-1.812-1.284-1.812-2.719V10.438
				c0-1.963,0.981-2.945,2.944-2.945h33.761c5.236,0,9.54,0.679,12.915,2.039c4.809,1.938,7.212,5.136,7.212,9.592V24.675
				L505.849,24.675z M497.465,24.751v-5.815c0-3.071-3.927-4.607-11.781-4.607h-28.284v14.727h29.795
				C494.04,29.057,497.465,27.622,497.465,24.751z"/>
		</g>
		<circle cx="498.688" cy="50.202" r="6.445"/>
	</g>
	<g>
		<path d="M172.389,112.824c-0.07-0.385-0.299-0.93-0.686-1.635c-0.389-0.701-0.916-1.562-1.582-2.584
			c-1.301-2.037-1.951-3.146-1.951-3.321c0-0.245,0.65-1.493,1.951-3.744c0.666-1.124,1.193-2.058,1.582-2.795
			c0.387-0.738,0.613-1.267,0.686-1.582c0.281-1.616,0.422-4.254,0.422-7.91c0-3.762-1.494-7.065-4.482-9.914
			c-2.707-2.53-6.012-4.153-9.914-5.104c-3.621-0.703-7.629-0.938-12.023-0.938h-48.99c-2.742,0-4.232,1.138-4.232,3.88v55.951
			c0,2.778,1.49,4.169,4.232,4.169h7.768v-9.652v-17.348h41.42c9.676,0,14.516,2.214,14.516,6.645c0,1.336-0.01,2.392-0.025,3.162
			c-0.02,0.774-0.045,1.593-0.08,1.805c-0.67,4.043-5.736,6.391-15.201,6.391h-26.629v9h27.908c6.82,0,12.479-1.146,16.979-3.43
			c5.836-2.952,8.754-7.508,8.754-13.659c0-1.935-0.033-3.506-0.104-4.72C172.633,114.275,172.528,113.389,172.389,112.824z
			 M146.377,101.297h-41.209v-19h40.734c9.781,0,14.848,2.391,15.199,6.854c0.213,2.427,0.316,4.625,0.316,5.785
			C161.42,98.907,156.405,101.297,146.377,101.297z"/>
		<circle cx="118.141" cy="132.354" r="9"/>
	</g>
	<g>
		<circle cx="318.232" cy="132.68" r="9"/>
		<path d="M339.77,75.616c-3.797-1.616-10.385-2.319-19.631-2.319h-18.246c-19.795,0-29.824,5.59-29.824,17.189v29.639
			c0,6.539,3.617,11.24,10.719,14.123c4.643,2.039,11.055,3.049,19.105,3.049h3.176v-9h-3.211c-11.965,0-17.789-3.249-17.789-8.488
			V90.752c0-5.413,5.824-8.455,17.789-8.455h18.579c11.855,0,17.632,3.042,17.632,8.455v29.057c0,5.239-5.754,8.488-17.578,8.488
			h-3.422v9h3.069c19.859,0,29.931-5.729,29.931-17.225V90.486C350.066,83.143,346.59,78.254,339.77,75.616z"/>
	</g>
	<g>
		<g>
			<path d="M439.169,121.038c0,5.836-2.899,10.178-8.7,13.024c-4.5,2.215-9.983,3.32-16.453,3.32H399.47h-12.03
				c-6.962,0-12.814-1.002-17.562-3.006c-6.538-2.742-9.809-7.119-9.809-13.131V89.081c0-5.767,3.338-10.037,10.021-12.813
				c5.272-2.075,11.092-3.11,17.454-3.11h10.548c2.849,0,4.271,1.582,4.271,4.745c0,3.199-1.425,4.8-4.271,4.8h-1.582h-1.056h-0.58
				c-0.315,0-0.493-0.019-0.526-0.054c-0.812-0.034-1.528-0.062-2.162-0.077c-0.633-0.019-1.146-0.026-1.528-0.026
				c-12.586,0-18.879,2.182-18.879,6.539v32.115c0,4.357,5.272,6.538,15.819,6.538h11.871h14.548c2.531,0,5.222-0.477,8.067-1.425
				c3.586-1.193,5.38-2.812,5.38-4.853v-3.334l11.706,0.25V121.038L439.169,121.038z"/>
		</g>
		<circle cx="399.592" cy="77.542" r="9"/>
		<path d="M406.592,100.443h7.423c6.468,0,11.951,1.106,16.453,3.322c5.801,2.85,8.7,7.188,8.7,13.024v3.167l-11.707,0.416v-4.005
			c0-2.039-1.793-3.656-5.381-4.854c-2.848-0.949-5.535-1.424-8.065-1.424h-7.423c-2.5,0-4.125-1.561-4.125-4.808
			C402.467,102.118,404.01,100.443,406.592,100.443z"/>
	</g>
	<g>
		<g>
			<path d="M255.693,133.221c0,2.776-1.371,4.165-4.113,4.165h-37.547c-8.58,0-15.277-0.771-20.092-2.319
				c-7.42-2.564-11.129-7.437-11.129-14.605V77.27c0-2.742,1.371-4.111,4.113-4.111c2.637,0,4.324,0.104,5.062,0.316
				c1.688,0.492,2.531,1.756,2.531,3.795v43.189c0,3.34,2.705,5.537,8.121,6.592c1.723,0.457,5.729,0.688,12.023,0.688h36.914
				C254.322,127.734,255.693,129.564,255.693,133.221z"/>
		</g>
		<circle cx="253.068" cy="132.412" r="9"/>
	</g>
</g>
</svg>
