<?xml version="1.0" encoding="utf-8"?>
<!-- Generator: Adobe Illustrator 16.0.0, SVG Export Plug-In . SVG Version: 6.00 Build 0)  -->
<!DOCTYPE svg PUBLIC "-//W3C//DTD SVG 1.1//EN" "http://www.w3.org/Graphics/SVG/1.1/DTD/svg11.dtd">
<svg version="1.1" id="Layer_1" xmlns="http://www.w3.org/2000/svg" xmlns:xlink="http://www.w3.org/1999/xlink" x="0px" y="0px"
	 width="564px" height="139px" viewBox="0 0 564 139" enable-background="new 0 0 564 139" xml:space="preserve">
<g>
	<g>
		<g>
			<g>
				<path d="M132.154,51.978c0,2.023-0.998,3.035-2.995,3.035c-0.872,0-1.614-0.02-2.229-0.058
					c-0.616-0.038-1.101-0.083-1.459-0.135c-1.229-0.384-1.844-1.331-1.844-2.843V11.219c0-1.512,0.602-2.447,1.806-2.805
					c0.281-0.052,0.729-0.097,1.345-0.135c0.613-0.039,1.408-0.058,2.382-0.058c1.998,0,2.995,1,2.995,2.998V51.978z"/>
			</g>
			<circle cx="127.89" cy="11.557" r="6.557"/>
		</g>
		<g>
			<g>
				<path d="M111.227,52.208c0,1.869-1.154,2.805-3.457,2.805c-2.536,0-4.01-0.129-4.419-0.384l-35.918-18.94v16.289
					c0,2.023-1.012,3.035-3.035,3.035c-2.049,0-3.24-0.09-3.573-0.269c-1.152-0.384-1.729-1.307-1.729-2.767V11.219
					c0-1.486,0.577-2.408,1.729-2.767c0.461-0.154,1.652-0.231,3.573-0.231c2.023,0,3.035,1,3.035,2.998v15.712l34.574-18.401
					c0.667-0.205,2.216-0.308,4.649-0.308c2.28,0,3.418,0.922,3.418,2.767c0,1.178-0.677,2.138-2.036,2.881L74.923,31.194
					l34.268,18.094C110.548,50.031,111.227,51.005,111.227,52.208z"/>
			</g>
			<circle cx="107.492" cy="52.841" r="6.556"/>
		</g>
		<g>
			<g>
				<path d="M229.897,11.769c0,0.487-0.115,0.974-0.345,1.46l-18.478,39.069c-1.128,2.306-2.895,3.457-5.302,3.457
					c-2.355,0-4.034-1.076-5.034-3.227l-14.75-31.54l-15.252,31.618c-0.922,1.869-2.586,2.804-4.994,2.804
					c-2.587,0-4.341-0.999-5.263-2.997l-18.401-39.185c-0.23-0.486-0.344-0.922-0.344-1.306c0-1.025,0.524-1.832,1.574-2.42
					c0.896-0.513,1.896-0.769,2.997-0.769c1.845,0,3.073,0.64,3.688,1.921l15.751,33.46l14.983-32.155
					c1.076-2.305,2.791-3.457,5.146-3.457c0.82,0,1.755,0.333,2.804,0.999c1.025,0.64,1.729,1.357,2.113,2.151l15.215,32.461
					l15.518-33.422c0.59-1.281,1.922-1.921,3.997-1.921c1.05,0,1.998,0.23,2.843,0.691
					C229.385,10.026,229.897,10.795,229.897,11.769z"/>
			</g>
			<circle cx="224.679" cy="12.578" r="6.557"/>
		</g>
		<g>
			<g>
				<path d="M249.34,51.978c0,2.023-0.999,3.035-2.996,3.035c-0.871,0-1.612-0.02-2.227-0.058s-1.102-0.083-1.461-0.135
					c-1.228-0.384-1.844-1.331-1.844-2.843V11.219c0-1.512,0.602-2.447,1.807-2.805c0.281-0.052,0.729-0.097,1.344-0.135
					c0.615-0.039,1.408-0.058,2.381-0.058c1.997,0,2.996,1,2.996,2.998V51.978z"/>
			</g>
			<circle cx="245.076" cy="11.557" r="6.556"/>
		</g>
	</g>
	<g>
		<circle cx="145.569" cy="127.472" r="6.531"/>
		<path d="M149.505,126.192l-28.47-40.294c-0.13-0.204-0.225-0.376-0.289-0.517s-0.12-0.25-0.172-0.325
			c-0.665-1.123-1.989-1.685-3.979-1.685c-2.679,0-4.568,0.843-5.664,2.526l-26.862,41.06c-0.154,0.229-0.23,0.484-0.23,0.766
			c0,0.892,0.483,1.67,1.454,2.334c0.866,0.611,1.773,0.918,2.717,0.918c0.942,0,1.822-0.716,2.64-1.915L98.19,118H120v-7h-16.835
			l12.973-18.904l12.895,19.076l4.974,7.033l7.538,10.959c1.02,1.529,2.347,2.303,3.98,2.303c1.172,0,2.156-0.394,2.947-1.185
			c0.789-0.79,1.186-1.771,1.186-2.945C149.658,126.752,149.605,126.37,149.505,126.192z"/>
		<circle cx="120.233" cy="114.411" r="6.531"/>
	</g>
	<g>
		<g>
			<path d="M216.832,117.312c0,8.854-8.482,13.279-25.447,13.279c-0.511,0-1.154-0.008-1.932-0.02
				c-0.778-0.014-1.678-0.033-2.697-0.058c-1.021-0.026-1.914-0.044-2.679-0.058c-0.766-0.012-1.403-0.019-1.914-0.019
				c-11.938,0-19.12-2.244-21.544-6.735c-0.841-1.556-1.263-3.686-1.263-6.391V86.813c0-1.99,0.99-2.984,2.972-2.984
				c1.905,0,3.124,0.076,3.657,0.229c1.244,0.382,1.866,1.301,1.866,2.755v29.924c0,2.96,1.799,4.937,5.396,5.932
				c1.072,0.256,2.34,0.447,3.808,0.574c1.466,0.129,3.195,0.191,5.184,0.191h11.71c4.463,0,7.462-0.242,8.993-0.727
				c3.596-0.943,5.395-2.922,5.395-5.933V86.813c0-1.479,0.603-2.396,1.807-2.755c0.486-0.153,1.716-0.229,3.689-0.229
				c1.999,0,2.998,0.994,2.998,2.984V117.312z"/>
		</g>
		<circle cx="212.602" cy="87.887" r="6.531"/>
	</g>
	<g>
		<g>
			<path d="M346.557,87.731c0,2.017-0.996,3.023-2.985,3.023h-30.269c-7.348,0-11.021,1.468-11.021,4.4v23.074
				c0,3.471,4.069,5.205,12.207,5.205h28.892c2.066,0,3.1,1.161,3.1,3.482c0,2.348-1.033,3.521-3.1,3.521h-28.892
				c-3.903,0-6.709-0.153-8.417-0.46c-1.863-0.356-3.801-1.045-5.817-2.066c-2.296-1.197-3.902-2.449-4.822-3.749
				c-1.097-1.479-1.645-3.406-1.645-5.778v-23.19c0-2.933,1.339-5.434,4.018-7.499c2.245-1.709,4.975-2.857,8.189-3.444
				c0.816-0.128,1.811-0.229,2.984-0.307c1.174-0.077,2.564-0.114,4.171-0.114h30.422C345.561,83.829,346.557,85.13,346.557,87.731z
				"/>
		</g>
		<circle cx="344.38" cy="126.853" r="6.531"/>
	</g>
	<g>
		<g>
			<path d="M480.723,107.132c0,2.477-1.06,3.713-3.176,3.713H436.64v7.652c0,3.292,3.636,4.938,10.906,4.938h30.001
				c1.99,0,2.984,1.008,2.984,3.022c0,2.654-0.994,3.98-2.984,3.98h-30.384c-4.438,0-8.508-0.79-12.207-2.374
				c-4.542-2.065-6.811-5.151-6.811-9.26V95.691c0-2.22,0.751-4.233,2.258-6.047c3.265-3.876,9.094-5.815,17.487-5.815h8.304
				c1.963,0,2.947,1.301,2.947,3.902c0,2.017-0.984,3.023-2.947,3.023h-1.224h-0.766h-0.42c-0.282,0-0.434-0.012-0.459-0.038
				c-0.638-0.024-1.187-0.044-1.646-0.058s-0.841-0.02-1.147-0.02c-9.312,0-13.967,1.684-13.967,5.052v8.15h41.021
				C479.677,103.842,480.723,104.94,480.723,107.132z"/>
		</g>
		<circle cx="457.971" cy="87.262" r="6.531"/>
	</g>
	<g>
		<g>
			<path d="M418.625,127.648c0,2.016-1.008,3.023-3.023,3.023c-1.939,0-3.151-0.077-3.635-0.229
				c-1.175-0.332-1.761-1.263-1.761-2.794v-16.569h-41.174v16.569c0,2.016-0.995,3.023-2.985,3.023c-0.868,0-1.607-0.019-2.22-0.056
				c-0.612-0.039-1.097-0.085-1.453-0.136c-1.225-0.384-1.838-1.327-1.838-2.832V87.05c0-1.506,0.599-2.438,1.798-2.795
				c0.28-0.051,0.728-0.096,1.339-0.135c0.613-0.038,1.403-0.057,2.373-0.057c1.99,0,2.985,0.995,2.985,2.986v17.027h41.174V87.05
				c0-1.455,0.599-2.373,1.799-2.756c0.484-0.154,1.683-0.23,3.597-0.23c2.016,0,3.023,0.995,3.023,2.986V127.648z"/>
		</g>
		<circle cx="364.698" cy="127.463" r="6.531"/>
		<circle cx="414.358" cy="87.386" r="6.531"/>
	</g>
	<g>
		<g>
			<path d="M71.884,127.861c0,2.015-0.995,3.021-2.985,3.021H41.653c-6.225,0-11.084-0.561-14.579-1.684
				C21.69,127.337,19,123.804,19,118.6V87.261c0-1.99,0.994-2.986,2.985-2.986c1.913,0,3.138,0.077,3.673,0.23
				c1.225,0.357,1.837,1.275,1.837,2.756V118.6c0,2.424,1.963,4.019,5.893,4.784c1.249,0.331,4.157,0.497,8.725,0.497h26.786
				C70.889,123.881,71.884,125.208,71.884,127.861z"/>
		</g>
		<circle cx="69.979" cy="127.274" r="6.531"/>
	</g>
	<g>
		<g>
			<path d="M284.094,125.271c0,3.547-1.555,5.32-4.668,5.32c-1.428,0-3.048-0.754-4.859-2.259L234.884,94.62v32.641
				c0,1.506-0.612,2.449-1.836,2.832c-0.358,0.051-0.843,0.096-1.455,0.135c-0.612,0.038-1.352,0.057-2.219,0.057
				c-1.99,0-2.985-1.008-2.985-3.023V88.382c0-3.366,1.456-5.051,4.366-5.051c1.837,0,3.727,0.816,5.668,2.449l39.177,33.33V86.661
				c0-1.48,0.608-2.411,1.828-2.795c0.356-0.051,0.838-0.095,1.448-0.133c0.608-0.037,1.345-0.059,2.21-0.059
				c2.006,0,3.008,0.995,3.008,2.986V125.271z"/>
		</g>
		<circle cx="280" cy="86.44" r="6.531"/>
	</g>
	<g>
		<g>
			<path d="M545.571,101.915c0,4.209-2.219,7.283-6.659,9.223c-3.52,1.428-7.576,2.143-12.168,2.143h-14.005l28.393,12.055
				c1.505,0.662,2.258,1.645,2.258,2.945c0,1.914-1.672,2.871-5.013,2.871c-1.328,0-2.374-0.102-3.138-0.307l-38.764-16.569v13.814
				c0,2.015-0.995,3.022-2.985,3.022c-2.118,0-3.342-0.089-3.673-0.268c-1.225-0.383-1.837-1.301-1.837-2.755V87.488
				c0-1.989,0.995-2.984,2.985-2.984h34.211c5.305,0,9.667,0.688,13.087,2.066c4.871,1.964,7.309,5.204,7.309,9.72V101.915z
				 M537.075,101.992v-5.894c0-3.112-3.979-4.668-11.939-4.668h-28.661v14.924h30.192
				C533.605,106.354,537.075,104.899,537.075,101.992z"/>
		</g>
		<circle cx="538.314" cy="127.782" r="6.531"/>
	</g>
</g>
</svg>
