<?xml version="1.0" encoding="utf-8"?>
<!-- Generator: Adobe Illustrator 16.0.0, SVG Export Plug-In . SVG Version: 6.00 Build 0)  -->
<!DOCTYPE svg PUBLIC "-//W3C//DTD SVG 1.1//EN" "http://www.w3.org/Graphics/SVG/1.1/DTD/svg11.dtd">
<svg version="1.1" id="Layer_1" xmlns="http://www.w3.org/2000/svg" xmlns:xlink="http://www.w3.org/1999/xlink" x="0px" y="0px"
	 width="534.833px" height="147px" viewBox="0 0 534.833 147" enable-background="new 0 0 534.833 147" xml:space="preserve">
<g id="Layer_1_1_">
	<g>
		<g>
			<path d="M193.242,50.125c0,1.973-0.974,2.958-2.921,2.958h-26.657c-6.091,0-10.845-0.549-14.265-1.647
				c-5.268-1.821-7.899-5.277-7.899-10.371V10.4c0-1.947,0.973-2.92,2.92-2.92c1.872,0,3.07,0.075,3.595,0.224
				c1.197,0.35,1.797,1.248,1.797,2.696v30.665c0,2.371,1.921,3.931,5.766,4.68c1.223,0.324,4.067,0.486,8.536,0.486h26.208
				C192.269,46.23,193.242,47.527,193.242,50.125z"/>
		</g>
		<circle cx="191.378" cy="49.551" r="6.39"/>
	</g>
	<g>
		<g>
			<path d="M70.742,41.785c0,2.445-0.388,4.355-1.161,5.729c-2.071,3.719-8.336,5.579-18.794,5.579H21.995
				c-1.923,0-2.883-0.985-2.883-2.958c0-1.348,0.15-2.283,0.449-2.808c0.424-0.724,1.236-1.086,2.434-1.086h28.792
				c7.763,0,11.644-1.435,11.644-4.306v-3.932c0-2.795-3.757-4.318-11.27-4.568l-13.815-0.449c-0.649-0.024-1.567-0.067-2.752-0.131
				c-1.186-0.062-2.639-0.155-4.361-0.279c-2.996-0.35-5.566-1.335-7.713-2.958C20.173,27.819,19,25.461,19,22.541v-3.444
				c0-5.317,2.945-8.824,8.836-10.521c2.82-0.724,7.987-1.085,15.501-1.085c1.946,0,2.92,1.272,2.92,3.819
				c0,1.473-0.587,2.396-1.76,2.771c-0.175,0.1-1.361,0.15-3.557,0.15c-9.086,0-13.629,1.597-13.629,4.792v3.182
				c0,1.972,1.697,3.258,5.092,3.856c0.649,0.125,1.592,0.219,2.827,0.281c1.235,0.063,2.752,0.094,4.549,0.094h11.119
				c5.316,0,9.511,0.687,12.581,2.06c4.842,1.997,7.263,5.066,7.263,9.21V41.785z"/>
		</g>
		<circle cx="44.374" cy="10.57" r="6.39"/>
	</g>
	<g>
		<g>
			<path d="M131.442,30.291c0,2.421-1.037,3.632-3.107,3.632H88.312v7.488c0,3.22,3.557,4.83,10.67,4.83h29.354
				c1.946,0,2.92,0.987,2.92,2.958c0,2.597-0.974,3.894-2.92,3.894H98.607c-4.343,0-8.324-0.772-11.943-2.321
				C82.221,48.749,80,45.729,80,41.709V19.096c0-2.172,0.735-4.143,2.209-5.916c3.193-3.793,8.896-5.69,17.11-5.69h8.124
				c1.921,0,2.883,1.272,2.883,3.819c0,1.972-0.962,2.958-2.883,2.958h-1.198h-0.749h-0.412c-0.274,0-0.425-0.012-0.448-0.037
				c-0.626-0.025-1.161-0.044-1.61-0.056c-0.45-0.013-0.823-0.019-1.124-0.019c-9.11,0-13.664,1.646-13.664,4.942v7.974h40.135
				C130.418,27.07,131.442,28.145,131.442,30.291z"/>
		</g>
		<circle cx="109.182" cy="10.848" r="6.39"/>
	</g>
	<g>
		<g>
			<path d="M259.05,30.291c0,2.421-1.035,3.632-3.107,3.632H215.92v7.488c0,3.22,3.557,4.83,10.67,4.83h29.353
				c1.947,0,2.921,0.987,2.921,2.958c0,2.597-0.974,3.894-2.921,3.894h-29.727c-4.343,0-8.325-0.772-11.943-2.321
				c-4.444-2.021-6.665-5.041-6.665-9.062V19.096c0-2.172,0.736-4.143,2.209-5.916c3.195-3.793,8.898-5.69,17.11-5.69h8.124
				c1.922,0,2.884,1.272,2.884,3.819c0,1.972-0.962,2.958-2.884,2.958h-1.197h-0.749h-0.411c-0.276,0-0.426-0.012-0.45-0.037
				c-0.624-0.025-1.16-0.044-1.61-0.056c-0.448-0.013-0.823-0.019-1.122-0.019c-9.111,0-13.666,1.646-13.666,4.942v7.974h40.136
				C258.026,27.07,259.05,28.145,259.05,30.291z"/>
		</g>
		<circle cx="236.79" cy="10.848" r="6.39"/>
	</g>
	<g>
		<g>
			<path d="M320.876,11.288c0,1.972-0.974,2.958-2.92,2.958H288.34c-7.188,0-10.782,1.436-10.782,4.305v22.577
				c0,3.396,3.981,5.092,11.943,5.092h28.268c2.021,0,3.032,1.136,3.032,3.407c0,2.297-1.011,3.443-3.032,3.443h-28.268
				c-3.818,0-6.564-0.148-8.236-0.448c-1.822-0.349-3.72-1.022-5.691-2.021c-2.247-1.174-3.819-2.396-4.718-3.67
				c-1.072-1.447-1.609-3.332-1.609-5.654V18.588c0-2.869,1.311-5.316,3.931-7.338c2.197-1.672,4.867-2.795,8.013-3.37
				c0.798-0.125,1.771-0.225,2.92-0.299c1.148-0.075,2.508-0.113,4.081-0.113h29.766C319.902,7.468,320.876,8.741,320.876,11.288z"
				/>
		</g>
		<circle cx="318.746" cy="49.562" r="6.39"/>
	</g>
	<g>
		<g>
			<path d="M386.384,11.127c0,1.973-0.973,2.958-2.922,2.958h-18.457v35.867c0,1.973-0.965,2.958-2.896,2.958
				c-1.956,0-3.171-0.075-3.647-0.225c-1.179-0.35-1.769-1.261-1.769-2.733V14.085h-18.309c-1.971,0-2.957-0.985-2.957-2.958
				c0-1.348,0.149-2.271,0.449-2.771c0.398-0.698,1.235-1.048,2.508-1.048h45.078C385.412,7.309,386.384,8.581,386.384,11.127z"/>
		</g>
		<circle cx="382.399" cy="10.57" r="6.39"/>
	</g>
	<g>
		<g>
			<path d="M449.32,30.291c0,2.421-1.035,3.632-3.107,3.632h-40.021v7.488c0,3.22,3.557,4.83,10.67,4.83h29.354
				c1.947,0,2.92,0.987,2.92,2.958c0,2.597-0.973,3.894-2.92,3.894h-29.729c-4.344,0-8.324-0.772-11.943-2.321
				c-4.443-2.021-6.664-5.041-6.664-9.062V19.096c0-2.172,0.734-4.143,2.209-5.916c3.195-3.793,8.898-5.69,17.109-5.69h8.125
				c1.922,0,2.883,1.272,2.883,3.819c0,1.972-0.961,2.958-2.883,2.958h-1.197h-0.75h-0.41c-0.275,0-0.426-0.012-0.449-0.037
				c-0.625-0.025-1.158-0.044-1.609-0.056c-0.449-0.013-0.824-0.019-1.123-0.019c-9.111,0-13.666,1.646-13.666,4.942v7.974h40.137
				C448.296,27.07,449.32,28.145,449.32,30.291z"/>
		</g>
		<circle cx="427.058" cy="10.848" r="6.39"/>
	</g>
	<g>
		<path d="M497.466,8h-35.381c-1.945,0-3.252,0.868-3.252,2.815v39.724c0,1.973,1.307,2.461,3.252,2.461h4.748v-6.354V15h30.41
			c2.395,0,4.59,0.136,6.512,0.734c2.695,0.875,4.078,2.033,4.078,3.804v21.603c0,2.049-1.369,3.725-4.041,4.67
			c-1.871,0.674-4.129,1.188-6.699,1.188h-19.26v6h19.447c4.814,0,8.814-0.601,12.16-2.297c4.316-2.222,6.393-5.229,6.393-9.524
			V19.501C515.833,11.765,509.822,8,497.466,8z"/>
		<circle cx="477.097" cy="50.183" r="6.39"/>
	</g>
	<g>
		<circle cx="207.867" cy="132.924" r="8.862"/>
		<path d="M229.189,76.346c-3.742-1.592-10.344-2.667-19.447-2.667h-17.966c-19.495,0-28.014,6.27-28.014,17.696v29.187
			c0,6.439,2.885,10.709,9.876,13.549c4.57,2.006,10.208,2.639,18.138,2.639h2.819v-9.811h-2.857
			c-11.783,0-16.764-1.529-16.764-6.688V91.635c0-5.332,4.979-8.145,16.764-8.145h18.301c11.68,0,18.193,2.812,18.193,8.145v28.616
			c0,5.156-6.498,6.688-18.143,6.688h-4.281v9.811h3.934c19.562,0,29.703-4.918,29.703-16.238V91.375
			C239.443,84.141,235.904,78.943,229.189,76.346z"/>
	</g>
	<g>
		<g>
			<path d="M505.71,121.788c0,3.393-0.539,6.041-1.609,7.945c-2.875,5.158-11.561,7.736-26.07,7.736h-39.936
				c-2.67,0-4.002-1.367-4.002-4.104c0-1.867,0.211-3.168,0.623-3.896c0.59-1.004,1.715-1.504,3.379-1.504h39.936
				c10.768,0,16.15-1.99,16.15-5.973v-5.453c0-3.881-5.213-5.99-15.631-6.34l-19.166-0.619c-0.9-0.035-2.172-0.096-3.816-0.182
				c-1.645-0.088-3.662-0.219-6.049-0.391c-4.154-0.484-7.723-1.854-10.697-4.103c-3.256-2.492-4.881-5.766-4.881-9.816v-4.773
				c0-7.375,4.084-12.238,12.256-14.596c3.91-1.002,11.078-1.506,21.502-1.506c2.695,0,4.051,1.768,4.051,5.297
				c0,2.045-0.814,3.326-2.445,3.846c-0.24,0.137-1.885,0.207-4.932,0.207c-12.6,0-18.902,2.217-18.902,6.646v4.412
				c0,2.736,2.355,4.52,7.061,5.35c0.904,0.176,2.209,0.305,3.924,0.391s3.814,0.129,6.309,0.129h15.426
				c7.377,0,13.188,0.953,17.451,2.855c6.717,2.77,10.072,7.028,10.072,12.776v5.664H505.71z"/>
		</g>
		<circle cx="469.134" cy="78.49" r="8.865"/>
	</g>
	<g>
		<g>
			<path d="M416.109,133.905c0,2.529-1.559,3.791-4.676,3.791c-3.43,0-5.418-0.172-5.973-0.516l-48.557-25.605v22.021
				c0,2.736-1.367,4.102-4.104,4.102c-2.771,0-4.379-0.121-4.832-0.361c-1.557-0.52-2.338-1.766-2.338-3.738V78.494
				c0-2.008,0.781-3.254,2.338-3.736c0.625-0.209,2.236-0.313,4.832-0.313c2.734,0,4.104,1.351,4.104,4.052v21.24l46.742-24.876
				c0.898-0.276,2.992-0.417,6.281-0.417c3.078,0,4.623,1.248,4.623,3.738c0,1.594-0.918,2.893-2.754,3.896L367.029,105.5
				l46.324,24.46C415.189,130.964,416.109,132.28,416.109,133.905z"/>
		</g>
		<circle cx="411.06" cy="134.763" r="8.863"/>
	</g>
	<g>
		<g>
			<path d="M331.619,98.074c0,5.713-3.012,9.886-9.037,12.517c-4.777,1.938-10.281,2.908-16.514,2.908h-19.01l38.533,16.357
				c2.043,0.902,3.066,2.232,3.066,4c0,2.596-2.27,3.895-6.807,3.895c-1.801,0-3.219-0.139-4.256-0.416l-52.609-22.486v18.748
				c0,2.736-1.35,4.102-4.051,4.102c-2.873,0-4.537-0.121-4.984-0.361c-1.664-0.52-2.492-1.766-2.492-3.738V78.494
				c0-2.701,1.35-4.051,4.049-4.051h46.434c7.197,0,13.119,0.936,17.762,2.805c6.609,2.666,9.918,7.064,9.918,13.191v7.635H331.619z
				 M320.087,98.178v-8c0-4.223-5.4-6.336-16.203-6.336h-38.9v20.256h40.977C315.376,104.098,320.087,102.125,320.087,98.178z"/>
		</g>
		<circle cx="321.771" cy="133.177" r="8.863"/>
	</g>
	<g>
		<g>
			<path d="M148.307,78.143c0,0.658-0.153,1.314-0.469,1.973l-24.979,52.817c-1.521,3.113-3.914,4.672-7.166,4.672
				c-3.188,0-5.456-1.453-6.806-4.361L88.948,90.607l-20.615,42.739c-1.248,2.529-3.498,3.791-6.75,3.791
				c-3.502,0-5.869-1.352-7.115-4.049L29.59,80.115c-0.312-0.658-0.469-1.246-0.469-1.766c0-1.387,0.713-2.477,2.131-3.271
				c1.213-0.693,2.562-1.039,4.051-1.039c2.494,0,4.154,0.865,4.986,2.598l21.293,45.233L81.836,78.4
				c1.453-3.113,3.773-4.672,6.957-4.672c1.108,0,2.371,0.449,3.791,1.352c1.387,0.865,2.338,1.836,2.858,2.908l20.565,43.884
				l20.982-45.183c0.793-1.73,2.594-2.598,5.399-2.598c1.421,0,2.702,0.312,3.844,0.936
				C147.614,75.785,148.307,76.826,148.307,78.143z"/>
		</g>
		<path d="M141.252,70.372c4.895,0,8.861,3.968,8.861,8.863s-3.968,8.863-8.861,8.863c-4.897,0-8.863-3.969-8.863-8.863
			S136.355,70.372,141.252,70.372z"/>
	</g>
</g>
<g id="Description">
</g>
</svg>
