<?xml version="1.0" encoding="utf-8"?>
<!-- Generator: Adobe Illustrator 16.0.0, SVG Export Plug-In . SVG Version: 6.00 Build 0)  -->
<!DOCTYPE svg PUBLIC "-//W3C//DTD SVG 1.1//EN" "http://www.w3.org/Graphics/SVG/1.1/DTD/svg11.dtd">
<svg version="1.1" id="Layer_1" xmlns="http://www.w3.org/2000/svg" xmlns:xlink="http://www.w3.org/1999/xlink" x="0px" y="0px"
	 width="515.417px" height="147px" viewBox="0 0 515.417 147" enable-background="new 0 0 515.417 147" xml:space="preserve">
<g id="Layer_1_1_">
	<g>
		<g>
			<path d="M187.926,50.125c0,1.973-0.974,2.958-2.921,2.958h-26.657c-6.091,0-10.845-0.549-14.265-1.647
				c-5.268-1.821-7.899-5.277-7.899-10.371V10.4c0-1.947,0.973-2.92,2.92-2.92c1.872,0,3.07,0.075,3.595,0.224
				c1.197,0.35,1.797,1.248,1.797,2.696v30.665c0,2.371,1.921,3.931,5.766,4.68c1.223,0.324,4.067,0.486,8.536,0.486h26.208
				C186.953,46.23,187.926,47.527,187.926,50.125z"/>
		</g>
		<circle cx="186.062" cy="49.551" r="6.39"/>
	</g>
	<g>
		<g>
			<path d="M70.742,41.785c0,2.445-0.388,4.355-1.161,5.729c-2.071,3.719-8.336,5.579-18.794,5.579H21.995
				c-1.923,0-2.883-0.985-2.883-2.958c0-1.348,0.15-2.283,0.449-2.808c0.424-0.724,1.236-1.086,2.434-1.086h28.792
				c7.763,0,11.644-1.435,11.644-4.306v-3.932c0-2.795-3.757-4.318-11.27-4.568l-13.815-0.449c-0.649-0.024-1.567-0.067-2.752-0.131
				c-1.186-0.062-2.639-0.155-4.361-0.279c-2.996-0.35-5.566-1.335-7.713-2.958C20.173,27.819,19,25.461,19,22.541v-3.444
				c0-5.317,2.945-8.824,8.836-10.521c2.82-0.724,7.987-1.085,15.501-1.085c1.946,0,2.92,1.271,2.92,3.819
				c0,1.473-0.587,2.396-1.76,2.771c-0.175,0.1-1.361,0.15-3.557,0.15c-9.086,0-13.629,1.597-13.629,4.792v3.182
				c0,1.972,1.697,3.258,5.092,3.856c0.649,0.125,1.592,0.219,2.827,0.281c1.235,0.063,2.752,0.094,4.549,0.094h11.119
				c5.316,0,9.511,0.687,12.581,2.06c4.842,1.997,7.263,5.066,7.263,9.21V41.785z"/>
		</g>
		<circle cx="44.374" cy="10.57" r="6.39"/>
	</g>
	<g>
		<g>
			<path d="M129.184,30.291c0,2.421-1.037,3.632-3.107,3.632H86.054v7.488c0,3.22,3.557,4.83,10.67,4.83h29.354
				c1.946,0,2.92,0.987,2.92,2.958c0,2.597-0.974,3.894-2.92,3.894H96.349c-4.343,0-8.324-0.771-11.943-2.321
				c-4.443-2.023-6.664-5.043-6.664-9.063V19.096c0-2.172,0.735-4.143,2.209-5.916c3.193-3.793,8.896-5.69,17.11-5.69h8.124
				c1.921,0,2.883,1.271,2.883,3.819c0,1.972-0.962,2.958-2.883,2.958h-1.198h-0.749h-0.412c-0.274,0-0.425-0.012-0.448-0.037
				c-0.626-0.025-1.161-0.044-1.61-0.056c-0.45-0.013-0.823-0.019-1.124-0.019c-9.11,0-13.664,1.646-13.664,4.942v7.974h40.135
				C128.16,27.07,129.184,28.145,129.184,30.291z"/>
		</g>
		<circle cx="106.924" cy="10.848" r="6.39"/>
	</g>
	<g>
		<g>
			<path d="M250.894,30.291c0,2.421-1.035,3.632-3.107,3.632h-40.023v7.488c0,3.22,3.557,4.83,10.67,4.83h29.353
				c1.947,0,2.921,0.987,2.921,2.958c0,2.597-0.974,3.894-2.921,3.894H218.06c-4.343,0-8.325-0.771-11.943-2.321
				c-4.444-2.021-6.665-5.041-6.665-9.062V19.096c0-2.172,0.736-4.143,2.209-5.916c3.195-3.793,8.898-5.69,17.11-5.69h8.124
				c1.922,0,2.884,1.271,2.884,3.819c0,1.972-0.962,2.958-2.884,2.958h-1.197h-0.749h-0.411c-0.276,0-0.426-0.012-0.45-0.037
				c-0.624-0.025-1.16-0.044-1.61-0.056c-0.448-0.013-0.823-0.019-1.122-0.019c-9.111,0-13.666,1.646-13.666,4.942v7.974h40.136
				C249.87,27.07,250.894,28.145,250.894,30.291z"/>
		</g>
		<circle cx="228.634" cy="10.848" r="6.39"/>
	</g>
	<g>
		<g>
			<path d="M309.523,11.288c0,1.972-0.973,2.958-2.92,2.958h-29.615c-7.188,0-10.781,1.436-10.781,4.305v22.577
				c0,3.396,3.98,5.092,11.941,5.092h28.268c2.021,0,3.033,1.136,3.033,3.407c0,2.297-1.012,3.443-3.033,3.443h-28.268
				c-3.816,0-6.562-0.148-8.234-0.448c-1.822-0.349-3.721-1.022-5.69-2.021c-2.248-1.174-3.82-2.396-4.72-3.67
				c-1.071-1.447-1.608-3.332-1.608-5.654V18.588c0-2.869,1.312-5.316,3.933-7.338c2.196-1.672,4.866-2.795,8.012-3.37
				c0.799-0.125,1.771-0.225,2.92-0.299c1.148-0.075,2.51-0.113,4.082-0.113h29.766C308.55,7.468,309.523,8.741,309.523,11.288z"/>
		</g>
		<circle cx="307.394" cy="49.562" r="6.39"/>
	</g>
	<g>
		<g>
			<path d="M371.74,11.127c0,1.973-0.973,2.958-2.922,2.958h-18.457v35.867c0,1.973-0.965,2.958-2.895,2.958
				c-1.957,0-3.172-0.075-3.648-0.225c-1.178-0.35-1.768-1.261-1.768-2.733V14.085H323.74c-1.971,0-2.957-0.985-2.957-2.958
				c0-1.348,0.15-2.271,0.449-2.771c0.398-0.698,1.236-1.048,2.508-1.048h45.078C370.769,7.309,371.74,8.581,371.74,11.127z"/>
		</g>
		<circle cx="367.755" cy="10.57" r="6.39"/>
	</g>
	<g>
		<g>
			<path d="M432.587,30.291c0,2.421-1.035,3.632-3.107,3.632h-40.021v7.488c0,3.22,3.557,4.83,10.67,4.83h29.355
				c1.945,0,2.92,0.987,2.92,2.958c0,2.597-0.975,3.894-2.92,3.894h-29.73c-4.344,0-8.324-0.771-11.943-2.321
				c-4.441-2.021-6.662-5.041-6.662-9.062V19.096c0-2.172,0.732-4.143,2.209-5.916c3.193-3.793,8.896-5.69,17.107-5.69h8.125
				c1.922,0,2.883,1.271,2.883,3.819c0,1.972-0.961,2.958-2.883,2.958h-1.197h-0.75h-0.408c-0.273,0-0.428-0.012-0.449-0.037
				c-0.625-0.025-1.156-0.044-1.607-0.056c-0.449-0.013-0.824-0.019-1.123-0.019c-9.111,0-13.666,1.646-13.666,4.942v7.974h40.137
				C431.562,27.07,432.587,28.145,432.587,30.291z"/>
		</g>
		<circle cx="410.324" cy="10.848" r="6.39"/>
	</g>
	<g>
		<path d="M478.22,8h-35.381c-1.945,0-3.252,0.868-3.252,2.815v39.724c0,1.973,1.307,2.461,3.252,2.461h4.748v-6.354V15h30.41
			c2.395,0,4.59,0.136,6.512,0.734c2.695,0.875,4.078,2.033,4.078,3.804v21.603c0,2.049-1.369,3.725-4.041,4.67
			c-1.871,0.674-4.129,1.188-6.699,1.188h-19.26v6h19.447c4.812,0,8.812-0.601,12.16-2.297c4.314-2.222,6.393-5.229,6.393-9.524
			V19.501C496.587,11.765,490.578,8,478.22,8z"/>
		<circle cx="457.851" cy="50.183" r="6.39"/>
	</g>
	<g>
		<circle cx="202.694" cy="132.924" r="8.862"/>
		<path d="M224.016,76.346c-3.742-1.592-10.344-2.667-19.447-2.667h-17.966c-19.495,0-28.014,6.271-28.014,17.696v29.188
			c0,6.438,2.885,10.709,9.876,13.55c4.57,2.006,10.208,2.639,18.138,2.639h2.819v-9.812h-2.857
			c-11.783,0-16.764-1.528-16.764-6.688V91.635c0-5.332,4.979-8.145,16.764-8.145h18.301c11.68,0,18.193,2.812,18.193,8.145v28.616
			c0,5.156-6.498,6.688-18.143,6.688h-4.281v9.811h3.934c19.562,0,29.703-4.918,29.703-16.238V91.375
			C234.27,84.141,230.73,78.943,224.016,76.346z"/>
	</g>
	<g>
		<g>
			<path d="M488.498,121.788c0,3.394-0.539,6.041-1.609,7.944c-2.875,5.158-11.561,7.735-26.068,7.735h-39.938
				c-2.67,0-4.002-1.366-4.002-4.104c0-1.867,0.211-3.168,0.623-3.896c0.59-1.004,1.715-1.504,3.379-1.504h39.938
				c10.768,0,16.148-1.989,16.148-5.973v-5.453c0-3.881-5.213-5.99-15.631-6.34l-19.166-0.619c-0.898-0.035-2.172-0.097-3.814-0.183
				c-1.646-0.088-3.662-0.219-6.051-0.392c-4.152-0.483-7.723-1.854-10.695-4.103c-3.258-2.492-4.883-5.767-4.883-9.816v-4.773
				c0-7.375,4.086-12.236,12.258-14.596c3.908-1.002,11.078-1.506,21.502-1.506c2.693,0,4.051,1.768,4.051,5.297
				c0,2.045-0.814,3.326-2.445,3.846c-0.24,0.139-1.885,0.207-4.932,0.207c-12.602,0-18.902,2.217-18.902,6.646v4.412
				c0,2.736,2.355,4.52,7.062,5.35c0.902,0.176,2.209,0.305,3.924,0.391c1.715,0.088,3.812,0.131,6.309,0.131h15.426
				c7.379,0,13.189,0.951,17.451,2.854c6.719,2.771,10.072,7.028,10.072,12.776v5.664H488.5v0.004H488.498z"/>
		</g>
		<circle cx="451.919" cy="78.49" r="8.865"/>
	</g>
	<g>
		<g>
			<path d="M402.916,133.904c0,2.529-1.562,3.791-4.678,3.791c-3.432,0-5.418-0.172-5.975-0.517l-48.557-25.604v22.021
				c0,2.736-1.367,4.104-4.104,4.104c-2.771,0-4.379-0.121-4.832-0.361c-1.557-0.521-2.338-1.767-2.338-3.736V78.494
				c0-2.008,0.781-3.254,2.338-3.736c0.625-0.209,2.236-0.312,4.832-0.312c2.734,0,4.104,1.351,4.104,4.052v21.239l46.742-24.875
				c0.898-0.276,2.992-0.419,6.281-0.419c3.078,0,4.623,1.248,4.623,3.738c0,1.594-0.918,2.895-2.754,3.896L353.833,105.5
				l46.322,24.46C401.996,130.964,402.916,132.279,402.916,133.904z"/>
		</g>
		<circle cx="397.865" cy="134.763" r="8.863"/>
	</g>
	<g>
		<g>
			<path d="M322.431,98.074c0,5.713-3.012,9.886-9.037,12.517c-4.775,1.938-10.279,2.908-16.514,2.908h-19.01l38.531,16.356
				c2.043,0.901,3.066,2.231,3.066,4c0,2.597-2.27,3.896-6.807,3.896c-1.801,0-3.219-0.14-4.256-0.416l-52.61-22.485v18.748
				c0,2.735-1.35,4.103-4.051,4.103c-2.873,0-4.537-0.121-4.984-0.361c-1.664-0.521-2.492-1.766-2.492-3.737V78.494
				c0-2.701,1.35-4.051,4.049-4.051h46.436c7.195,0,13.117,0.936,17.762,2.805c6.607,2.666,9.918,7.064,9.918,13.191v7.635H322.431z
				 M310.9,98.178v-8c0-4.223-5.398-6.336-16.204-6.336h-38.899v20.256h40.977C306.188,104.098,310.9,102.125,310.9,98.178z"/>
		</g>
		<circle cx="312.583" cy="133.177" r="8.863"/>
	</g>
	<g>
		<g>
			<path d="M146.784,78.143c0,0.658-0.153,1.314-0.469,1.975l-24.979,52.816c-1.521,3.112-3.914,4.672-7.166,4.672
				c-3.188,0-5.456-1.453-6.806-4.36L87.425,90.607L66.81,133.346c-1.248,2.529-3.498,3.791-6.75,3.791
				c-3.502,0-5.869-1.352-7.115-4.049L28.066,80.115c-0.312-0.658-0.469-1.246-0.469-1.766c0-1.389,0.713-2.479,2.131-3.271
				c1.213-0.693,2.562-1.039,4.051-1.039c2.494,0,4.154,0.865,4.986,2.598l21.293,45.233L80.312,78.4
				c1.453-3.113,3.773-4.672,6.957-4.672c1.108,0,2.371,0.449,3.791,1.352c1.387,0.865,2.338,1.836,2.858,2.908l20.565,43.884
				l20.982-45.183c0.793-1.73,2.594-2.6,5.399-2.6c1.421,0,2.702,0.312,3.844,0.938C146.09,75.785,146.784,76.826,146.784,78.143z"
				/>
		</g>
		<path d="M139.729,70.372c4.895,0,8.861,3.968,8.861,8.862c0,4.896-3.968,8.863-8.861,8.863c-4.897,0-8.863-3.97-8.863-8.863
			S134.832,70.372,139.729,70.372z"/>
	</g>
</g>
<g id="Description">
</g>
</svg>
