<?xml version="1.0" encoding="utf-8"?>
<!-- Generator: Adobe Illustrator 16.0.0, SVG Export Plug-In . SVG Version: 6.00 Build 0)  -->
<!DOCTYPE svg PUBLIC "-//W3C//DTD SVG 1.1//EN" "http://www.w3.org/Graphics/SVG/1.1/DTD/svg11.dtd">
<svg version="1.1" id="Layer_1" xmlns="http://www.w3.org/2000/svg" xmlns:xlink="http://www.w3.org/1999/xlink" x="0px" y="0px"
	 width="706.833px" height="148px" viewBox="0 0 706.833 148" enable-background="new 0 0 706.833 148" xml:space="preserve">
<g id="Layer_1_1_">
	<g>
		<g>
			<path d="M187.927,50.125c0,1.973-0.975,2.958-2.922,2.958h-26.656c-6.092,0-10.846-0.549-14.266-1.647
				c-5.268-1.821-7.898-5.277-7.898-10.371V10.4c0-1.947,0.973-2.92,2.92-2.92c1.872,0,3.07,0.075,3.595,0.224
				c1.197,0.35,1.797,1.248,1.797,2.696v30.665c0,2.371,1.921,3.931,5.767,4.68c1.223,0.324,4.066,0.486,8.535,0.486h26.208
				C186.953,46.23,187.927,47.527,187.927,50.125z"/>
		</g>
		<circle cx="186.062" cy="49.551" r="6.39"/>
	</g>
	<g>
		<g>
			<path d="M70.742,41.785c0,2.445-0.389,4.355-1.161,5.729c-2.071,3.719-8.336,5.579-18.794,5.579H21.995
				c-1.924,0-2.884-0.985-2.884-2.958c0-1.348,0.15-2.283,0.449-2.808c0.424-0.724,1.236-1.086,2.435-1.086h28.792
				c7.763,0,11.644-1.435,11.644-4.306v-3.932c0-2.795-3.757-4.318-11.27-4.568l-13.815-0.449c-0.649-0.024-1.567-0.067-2.752-0.131
				c-1.186-0.062-2.639-0.155-4.361-0.279c-2.996-0.35-5.565-1.335-7.713-2.958C20.173,27.819,19,25.461,19,22.541v-3.444
				c0-5.317,2.944-8.824,8.836-10.521c2.819-0.724,7.986-1.085,15.501-1.085c1.946,0,2.92,1.271,2.92,3.819
				c0,1.473-0.587,2.396-1.76,2.771c-0.176,0.1-1.361,0.15-3.558,0.15c-9.086,0-13.629,1.597-13.629,4.792v3.182
				c0,1.972,1.697,3.258,5.092,3.856c0.649,0.125,1.593,0.219,2.827,0.281c1.235,0.063,2.752,0.094,4.549,0.094h11.119
				c5.316,0,9.512,0.687,12.581,2.06c4.842,1.997,7.264,5.066,7.264,9.21V41.785z"/>
		</g>
		<circle cx="44.374" cy="10.57" r="6.39"/>
	</g>
	<g>
		<g>
			<path d="M129.184,30.291c0,2.421-1.037,3.632-3.106,3.632H86.054v7.488c0,3.22,3.558,4.83,10.67,4.83h29.354
				c1.946,0,2.92,0.987,2.92,2.958c0,2.597-0.974,3.894-2.92,3.894H96.349c-4.343,0-8.323-0.771-11.942-2.321
				c-4.443-2.023-6.664-5.043-6.664-9.063V19.096c0-2.172,0.734-4.143,2.209-5.916c3.192-3.793,8.896-5.69,17.109-5.69h8.124
				c1.921,0,2.884,1.271,2.884,3.819c0,1.972-0.963,2.958-2.884,2.958h-1.197h-0.749h-0.412c-0.274,0-0.425-0.012-0.448-0.037
				c-0.626-0.025-1.161-0.044-1.61-0.056c-0.449-0.013-0.822-0.019-1.124-0.019c-9.109,0-13.664,1.646-13.664,4.942v7.974h40.136
				C128.16,27.07,129.184,28.145,129.184,30.291z"/>
		</g>
		<circle cx="106.924" cy="10.848" r="6.39"/>
	</g>
	<g>
		<g>
			<path d="M250.895,30.291c0,2.421-1.035,3.632-3.107,3.632h-40.022v7.488c0,3.22,3.557,4.83,10.67,4.83h29.353
				c1.947,0,2.921,0.987,2.921,2.958c0,2.597-0.974,3.894-2.921,3.894h-29.727c-4.343,0-8.325-0.771-11.943-2.321
				c-4.443-2.021-6.665-5.041-6.665-9.062V19.096c0-2.172,0.736-4.143,2.209-5.916c3.195-3.793,8.898-5.69,17.11-5.69h8.124
				c1.922,0,2.884,1.271,2.884,3.819c0,1.972-0.962,2.958-2.884,2.958H225.7h-0.749h-0.411c-0.275,0-0.426-0.012-0.449-0.037
				c-0.624-0.025-1.16-0.044-1.61-0.056c-0.448-0.013-0.823-0.019-1.122-0.019c-9.111,0-13.666,1.646-13.666,4.942v7.974h40.136
				C249.87,27.07,250.895,28.145,250.895,30.291z"/>
		</g>
		<circle cx="228.635" cy="10.848" r="6.39"/>
	</g>
	<g>
		<g>
			<path d="M309.524,11.288c0,1.972-0.977,2.958-2.922,2.958h-29.616c-7.188,0-10.782,1.436-10.782,4.305v22.577
				c0,3.396,3.981,5.092,11.943,5.092h28.268c2.021,0,3.032,1.136,3.032,3.407c0,2.297-1.013,3.443-3.032,3.443h-28.268
				c-3.818,0-6.564-0.148-8.236-0.448c-1.822-0.349-3.72-1.022-5.691-2.021c-2.246-1.174-3.818-2.396-4.718-3.67
				c-1.071-1.447-1.608-3.332-1.608-5.654V18.588c0-2.869,1.311-5.316,3.931-7.338c2.197-1.672,4.867-2.795,8.013-3.37
				c0.798-0.125,1.771-0.225,2.92-0.299c1.148-0.075,2.509-0.113,4.081-0.113h29.769C308.55,7.468,309.524,8.741,309.524,11.288z"/>
		</g>
		<circle cx="307.394" cy="49.562" r="6.39"/>
	</g>
	<g>
		<g>
			<path d="M371.741,11.127c0,1.973-0.973,2.958-2.922,2.958h-18.457v35.867c0,1.973-0.965,2.958-2.896,2.958
				c-1.956,0-3.171-0.075-3.646-0.225c-1.181-0.35-1.771-1.261-1.771-2.733V14.085H323.74c-1.973,0-2.957-0.985-2.957-2.958
				c0-1.348,0.147-2.271,0.449-2.771c0.396-0.698,1.232-1.048,2.508-1.048h45.079C370.77,7.309,371.741,8.581,371.741,11.127z"/>
		</g>
		<circle cx="367.756" cy="10.57" r="6.39"/>
	</g>
	<g>
		<g>
			<path d="M432.616,30.291c0,2.421-1.035,3.632-3.105,3.632h-40.02v7.488c0,3.22,3.557,4.83,10.67,4.83h29.354
				c1.947,0,2.92,0.987,2.92,2.958c0,2.597-0.973,3.894-2.92,3.894h-29.729c-4.344,0-8.324-0.771-11.941-2.321
				c-4.443-2.021-6.664-5.041-6.664-9.062V19.096c0-2.172,0.732-4.143,2.209-5.916c3.193-3.793,8.896-5.69,17.107-5.69h8.125
				c1.922,0,2.883,1.271,2.883,3.819c0,1.972-0.961,2.958-2.883,2.958h-1.195h-0.75h-0.41c-0.275,0-0.426-0.012-0.449-0.037
				c-0.625-0.025-1.158-0.044-1.609-0.056c-0.447-0.013-0.822-0.019-1.123-0.019c-9.109,0-13.666,1.646-13.666,4.942v7.974h40.139
				C431.592,27.07,432.616,28.145,432.616,30.291z"/>
		</g>
		<circle cx="410.356" cy="10.848" r="6.39"/>
	</g>
	<g>
		<path d="M478.25,8H442.87c-1.945,0-3.254,0.868-3.254,2.815v39.724c0,1.973,1.309,2.461,3.254,2.461h4.746v-6.354V15h30.41
			c2.396,0,4.59,0.136,6.514,0.734c2.693,0.875,4.076,2.033,4.076,3.804v21.603c0,2.049-1.367,3.725-4.041,4.67
			c-1.869,0.674-4.129,1.188-6.697,1.188h-19.262v6h19.447c4.814,0,8.814-0.601,12.16-2.297c4.316-2.222,6.393-5.229,6.393-9.524
			V19.501C496.616,11.765,490.606,8,478.25,8z"/>
		<circle cx="457.881" cy="50.183" r="6.39"/>
	</g>
	<g>
		<circle cx="402.524" cy="131.958" r="8.862"/>
		<path d="M423.846,75.38c-3.742-1.592-10.344-2.667-19.447-2.667h-17.967c-19.492,0-28.014,6.27-28.014,17.696v29.187
			c0,6.439,2.885,10.709,9.877,13.549c4.57,2.006,10.207,2.642,18.137,2.642h2.82v-9.812h-2.857
			c-11.781,0-16.764-1.529-16.764-6.688V90.668c0-5.331,4.979-8.145,16.764-8.145h18.301c11.682,0,18.193,2.812,18.193,8.145v28.616
			c0,5.157-6.498,6.688-18.143,6.688h-4.281v9.811h3.934c19.562,0,29.703-4.918,29.703-16.239V90.409
			C434.1,83.174,430.561,77.977,423.846,75.38z"/>
	</g>
	<g>
		<g>
			<path d="M688.329,120.822c0,3.393-0.539,6.041-1.609,7.945c-2.875,5.154-11.561,7.733-26.068,7.733h-39.938
				c-2.67,0-4.002-1.367-4.002-4.104c0-1.866,0.211-3.168,0.623-3.896c0.59-1.004,1.715-1.505,3.379-1.505h39.938
				c10.77,0,16.148-1.99,16.148-5.975v-5.453c0-3.881-5.213-5.988-15.631-6.34l-19.166-0.619c-0.9-0.032-2.172-0.096-3.814-0.182
				c-1.646-0.089-3.662-0.219-6.051-0.391c-4.152-0.484-7.723-1.854-10.695-4.104c-3.258-2.492-4.883-5.769-4.883-9.815V89.35
				c0-7.375,4.084-12.237,12.258-14.595c3.908-1.003,11.076-1.506,21.502-1.506c2.693,0,4.053,1.767,4.053,5.297
				c0,2.044-0.814,3.325-2.445,3.845c-0.24,0.137-1.885,0.207-4.932,0.207c-12.604,0-18.902,2.217-18.902,6.646v4.413
				c0,2.735,2.354,4.519,7.061,5.35c0.904,0.175,2.209,0.304,3.924,0.39c1.717,0.086,3.814,0.129,6.311,0.129h15.428
				c7.377,0,13.188,0.953,17.449,2.855c6.719,2.77,10.072,7.029,10.072,12.776v5.665H688.329L688.329,120.822z"/>
		</g>
		<circle cx="651.752" cy="77.524" r="8.865"/>
	</g>
	<g>
		<g>
			<path d="M602.745,132.939c0,2.526-1.561,3.791-4.676,3.791c-3.432,0-5.418-0.172-5.975-0.52l-48.557-25.604v22.021
				c0,2.733-1.367,4.104-4.105,4.104c-2.77,0-4.379-0.121-4.832-0.362c-1.557-0.519-2.338-1.765-2.338-3.738V77.527
				c0-2.008,0.781-3.254,2.338-3.736c0.625-0.208,2.236-0.313,4.832-0.313c2.734,0,4.105,1.35,4.105,4.051v21.24l46.742-24.875
				c0.895-0.277,2.992-0.417,6.277-0.417c3.078,0,4.623,1.248,4.623,3.739c0,1.593-0.918,2.892-2.754,3.896l-44.768,23.424
				l46.324,24.461C601.825,129.998,602.745,131.314,602.745,132.939z"/>
		</g>
		<circle cx="597.696" cy="133.796" r="8.863"/>
	</g>
	<g>
		<g>
			<path d="M522.262,97.107c0,5.713-3.012,9.886-9.035,12.517c-4.777,1.938-10.281,2.908-16.516,2.908h-19.01l38.533,16.358
				c2.043,0.898,3.062,2.229,3.062,4c0,2.596-2.27,3.895-6.807,3.895c-1.801,0-3.219-0.139-4.256-0.416l-52.609-22.486v18.748
				c0,2.735-1.35,4.102-4.051,4.102c-2.873,0-4.537-0.12-4.984-0.359c-1.664-0.521-2.492-1.768-2.492-3.738V77.527
				c0-2.7,1.354-4.05,4.053-4.05h46.434c7.197,0,13.119,0.936,17.762,2.805c6.609,2.666,9.918,7.062,9.918,13.19v7.635H522.262z
				 M510.733,97.212v-8c0-4.223-5.4-6.336-16.203-6.336h-38.9v20.255h40.98C506.022,103.132,510.733,101.158,510.733,97.212z"/>
		</g>
		<circle cx="512.415" cy="132.21" r="8.863"/>
	</g>
	<g>
		<g>
			<path d="M346.614,77.176c0,0.658-0.153,1.314-0.471,1.973l-24.979,52.817c-1.521,3.114-3.914,4.673-7.166,4.673
				c-3.188,0-5.456-1.453-6.806-4.36l-19.939-42.638l-20.615,42.74c-1.248,2.528-3.498,3.79-6.75,3.79
				c-3.501,0-5.869-1.351-7.114-4.049l-24.878-52.974c-0.312-0.657-0.468-1.246-0.468-1.769c0-1.386,0.712-2.477,2.13-3.271
				c1.213-0.692,2.562-1.038,4.051-1.038c2.494,0,4.155,0.865,4.987,2.597l21.292,45.232l20.254-43.471
				c1.453-3.114,3.773-4.67,6.958-4.67c1.107,0,2.371,0.449,3.791,1.351c1.386,0.868,2.338,1.836,2.857,2.911l20.565,43.885
				l20.98-45.184c0.794-1.729,2.595-2.601,5.399-2.601c1.421,0,2.702,0.312,3.844,0.936
				C345.921,74.818,346.614,75.859,346.614,77.176z"/>
		</g>
		<path d="M339.559,69.405c4.896,0,8.86,3.969,8.86,8.862c0,4.896-3.967,8.862-8.86,8.862c-4.896,0-8.861-3.969-8.861-8.862
			C330.696,73.375,334.661,69.405,339.559,69.405z"/>
	</g>
</g>
<g id="Description">
</g>
</svg>
